<?xml version="1.0" standalone="no"?>
<!DOCTYPE svg PUBLIC "-//W3C//DTD SVG 20010904//EN"
 "http://www.w3.org/TR/2001/REC-SVG-20010904/DTD/svg10.dtd">
<svg version="1.0" xmlns="http://www.w3.org/2000/svg"
 width="700.000000pt" height="700.000000pt" viewBox="0 0 700.000000 700.000000"
 preserveAspectRatio="xMidYMid meet">
<metadata>
Created by potrace 1.11, written by Peter Selinger 2001-2013
</metadata>
<g transform="translate(0.000000,700.000000) scale(0.100000,-0.100000)"
fill="#000000" stroke="none">
<path d="M3298 6315 c-1 -1 -37 -6 -78 -9 -88 -8 -127 -13 -195 -26 -27 -5
-61 -11 -75 -14 -145 -25 -419 -110 -560 -173 -271 -123 -418 -210 -624 -372
-131 -102 -161 -128 -276 -246 -313 -319 -530 -676 -674 -1106 -25 -77 -70
-248 -80 -304 -2 -16 -11 -68 -20 -115 -25 -141 -31 -235 -31 -460 1 -193 4
-265 21 -380 106 -741 497 -1406 1092 -1859 162 -122 405 -265 572 -336 25
-10 63 -26 85 -36 99 -42 362 -121 480 -144 65 -12 223 -36 290 -43 141 -14
535 -7 645 12 14 2 59 10 100 16 771 121 1494 604 1920 1283 86 138 188 340
236 469 9 24 19 52 24 63 58 144 129 433 146 595 3 30 8 66 11 80 2 14 6 126
8 250 2 218 -8 372 -36 515 -6 33 -13 71 -15 85 -18 105 -122 456 -144 485 -4
6 -11 21 -15 35 -13 43 -116 251 -168 340 -80 136 -238 356 -317 441 -278 297
-500 472 -810 637 -211 111 -540 229 -745 266 -16 3 -39 8 -50 10 -32 6 -166
26 -220 32 -54 6 -491 14 -497 9z m717 -548 c11 -3 40 -8 65 -11 25 -3 54 -8
65 -10 11 -2 40 -7 65 -11 77 -12 263 -63 366 -100 241 -86 547 -265 729 -425
331 -293 544 -571 694 -907 80 -179 156 -433 176 -593 4 -30 9 -64 11 -75 28
-147 24 -555 -6 -735 -5 -30 -12 -73 -16 -95 -8 -55 -48 -214 -78 -305 -50
-159 -163 -399 -237 -507 -16 -23 -29 -44 -29 -48 0 -3 -5 -11 -10 -18 -6 -7
-40 -52 -77 -102 -143 -194 -340 -394 -530 -536 -384 -289 -794 -443 -1288
-484 -62 -6 -334 -5 -395 0 -182 16 -190 17 -355 52 -345 72 -698 241 -990
473 -184 146 -423 408 -557 611 -261 394 -392 846 -392 1349 1 105 12 319 18
329 2 3 7 33 11 66 3 32 8 62 10 65 1 3 6 26 9 53 4 26 10 57 15 70 5 12 9 25
10 30 6 49 64 232 103 327 125 305 305 570 562 825 222 221 415 360 673 485
190 92 326 139 538 185 108 23 150 30 290 45 72 8 514 5 550 -3z"/>
<path d="M3597 5144 c-1 -1 -33 -5 -72 -8 -441 -42 -823 -228 -1142 -557 -252
-260 -425 -582 -483 -899 -6 -30 -12 -66 -15 -79 -34 -174 -22 -590 21 -733 3
-9 7 -25 9 -35 85 -412 404 -850 812 -1117 137 -90 367 -194 486 -221 235 -52
300 -60 507 -60 314 1 520 45 800 172 19 9 73 39 120 66 263 155 519 408 677
667 122 202 214 469 238 690 4 36 9 76 11 90 6 34 6 334 0 351 -3 8 -7 39 -10
69 -4 45 -18 128 -30 175 -1 6 -6 26 -10 45 -10 46 -45 157 -62 197 -8 17 -14
34 -14 37 0 6 -85 180 -111 226 -90 161 -296 395 -465 530 -334 266 -694 389
-1152 394 -62 1 -114 1 -115 0z"/>
</g>
</svg>
