<?xml version="1.0" encoding="UTF-8" ?>
<!DOCTYPE svg PUBLIC "-//W3C//DTD SVG 1.1//EN" "http://www.w3.org/Graphics/SVG/1.1/DTD/svg11.dtd">
<svg width="1308pt" height="302pt" viewBox="0 0 1308 302" version="1.1" xmlns="http://www.w3.org/2000/svg">
<g id="#f2275cff">
<path fill="#f2275c" opacity="1.00" d=" M 288.58 19.51 C 323.10 9.37 361.50 13.68 392.99 31.04 C 403.13 36.60 412.59 43.45 420.99 51.39 C 421.52 50.85 422.04 50.30 422.56 49.74 L 420.78 52.08 L 424.44 51.62 C 423.70 52.01 422.97 52.40 422.25 52.80 C 440.23 69.31 452.93 91.31 459.62 114.71 C 460.32 114.80 461.72 114.99 462.43 115.08 C 461.75 115.10 460.40 115.14 459.73 115.16 C 469.18 149.03 465.13 186.47 448.43 217.44 C 435.90 240.88 416.36 260.54 393.02 273.24 C 393.76 273.61 394.51 273.99 395.27 274.37 L 394.42 275.71 C 393.90 275.69 392.87 275.66 392.36 275.64 C 392.31 275.12 392.20 274.09 392.15 273.57 C 366.61 287.80 336.24 292.87 307.37 288.79 C 275.83 284.55 246.18 268.71 224.71 245.29 C 224.13 244.56 223.56 243.84 222.98 243.13 C 221.27 241.16 219.56 239.19 217.92 237.17 C 196.11 209.40 185.64 173.02 189.52 137.93 C 192.36 107.64 205.99 78.69 226.96 56.72 C 243.80 39.25 265.17 26.05 288.58 19.51 M 315.88 43.48 C 290.71 47.35 267.50 60.56 250.08 78.97 C 232.83 96.52 221.10 119.60 217.85 144.05 C 215.09 163.94 216.78 184.51 223.38 203.52 C 226.97 213.29 231.85 222.57 237.81 231.11 C 245.39 241.70 254.74 250.93 264.81 259.14 C 264.85 258.30 264.92 256.61 264.95 255.77 C 265.05 256.98 265.15 258.19 265.24 259.41 C 281.73 271.82 301.47 280.14 322.08 282.07 C 344.20 284.32 367.24 282.14 387.50 272.45 C 422.42 255.98 449.84 222.60 456.13 184.14 C 461.46 152.96 455.33 119.31 436.58 93.48 C 425.73 78.79 412.24 65.82 396.30 56.78 C 381.61 48.28 364.92 43.55 348.07 42.07 C 337.34 42.30 326.46 41.11 315.88 43.48 Z" />
<path fill="#f2275c" opacity="1.00" d=" M 320.07 73.69 C 336.82 70.24 354.49 72.12 370.44 78.15 C 372.63 76.40 373.55 78.75 374.94 80.03 C 393.78 89.09 409.61 104.48 418.84 123.28 C 426.76 139.50 428.92 158.11 426.52 175.89 C 424.09 195.69 413.87 214.03 399.58 227.75 C 395.91 231.13 391.98 234.21 388.08 237.32 C 375.21 246.04 360.09 251.60 344.51 252.33 C 337.64 253.30 330.77 252.25 323.90 251.88 C 286.77 246.88 254.91 215.95 248.44 179.11 C 247.29 170.82 246.09 162.41 247.42 154.06 C 248.82 133.59 258.07 113.92 272.64 99.52 C 285.26 86.28 301.96 76.76 320.07 73.69 Z" />
</g>
<g id="#010118ff">
<path fill="#010118" opacity="1.00" d=" M 25.65 44.09 C 46.77 44.05 67.89 44.10 89.01 44.06 C 123.33 45.74 154.95 71.83 162.68 105.39 C 166.17 119.84 165.62 135.17 161.29 149.37 C 156.35 165.67 145.44 179.70 132.05 189.99 C 119.74 199.39 104.47 204.85 88.99 205.30 C 78.34 205.63 67.68 205.32 57.03 205.45 C 56.96 230.64 57.02 255.83 57.00 281.02 C 46.55 280.96 36.10 281.04 25.64 280.98 C 25.49 202.02 25.48 123.05 25.65 44.09 M 57.00 75.93 C 57.00 108.62 57.00 141.31 57.00 174.00 C 67.32 173.97 77.65 174.05 87.97 173.99 C 105.70 173.14 121.73 161.11 129.19 145.27 C 136.74 128.36 134.33 106.99 121.82 93.04 C 113.00 82.69 99.81 75.55 86.01 75.90 C 76.34 75.95 66.67 75.91 57.00 75.93 Z" />
<path fill="#010118" opacity="1.00" d=" M 498.67 44.09 C 508.46 44.13 518.25 43.95 528.04 44.14 C 529.71 43.88 530.08 45.70 529.93 46.96 C 529.92 114.64 529.92 182.32 529.93 250.00 C 557.95 250.00 585.98 250.00 614.00 250.00 C 614.00 260.33 613.99 270.67 614.01 281.00 C 575.54 281.02 537.07 280.95 498.60 281.04 C 498.59 202.06 498.44 123.07 498.67 44.09 Z" />
<path fill="#010118" opacity="1.00" d=" M 651.99 44.06 C 662.30 44.14 672.62 43.98 682.93 44.14 C 683.12 123.09 682.91 202.05 683.03 281.00 C 672.68 281.02 662.33 280.96 651.99 281.04 C 652.01 202.04 652.01 123.05 651.99 44.06 Z" />
<path fill="#010118" opacity="1.00" d=" M 730.00 44.07 C 751.34 44.08 772.68 44.08 794.03 44.07 C 825.83 46.13 855.07 68.89 865.02 99.15 C 871.07 117.79 870.26 138.56 862.73 156.65 C 857.28 169.49 848.12 180.46 837.51 189.38 C 832.60 193.88 827.20 197.91 820.98 200.39 C 838.54 227.18 855.91 254.10 873.31 281.00 C 860.65 281.00 848.00 281.00 835.35 281.00 C 820.49 256.77 805.17 232.82 790.26 208.62 C 789.29 207.45 788.71 205.35 786.86 205.51 C 778.25 205.27 769.63 205.51 761.03 205.46 C 760.97 230.64 761.01 255.83 761.00 281.02 C 750.67 280.97 740.33 281.01 730.00 281.00 C 730.00 202.02 730.00 123.05 730.00 44.07 M 761.00 75.93 C 761.00 108.62 761.00 141.31 761.00 174.00 C 771.35 173.97 781.71 174.04 792.07 173.99 C 814.71 172.86 834.94 153.55 837.14 130.99 C 838.49 120.14 836.46 108.73 830.60 99.43 C 822.77 86.68 809.01 77.25 793.95 75.99 C 782.97 75.81 771.98 75.98 761.00 75.93 Z" />
<path fill="#010118" opacity="1.00" d=" M 902.68 44.09 C 945.23 44.06 987.79 44.07 1030.34 44.09 C 1030.52 54.54 1030.41 64.99 1030.41 75.44 C 998.28 75.43 966.14 75.44 934.00 75.44 C 933.83 99.29 933.96 123.15 933.94 147.00 C 966.09 146.97 998.25 147.05 1030.41 146.96 C 1030.46 157.31 1030.39 167.66 1030.44 178.02 C 998.27 177.99 966.09 178.00 933.92 178.01 C 933.94 202.01 933.91 226.00 933.94 250.00 C 966.10 249.98 998.27 250.04 1030.44 249.97 C 1030.38 260.32 1030.49 270.68 1030.38 281.03 C 987.79 280.98 945.19 280.97 902.60 281.04 C 902.60 202.05 902.43 123.07 902.68 44.09 Z" />
<path fill="#010118" opacity="1.00" d=" M 1077.66 44.09 C 1087.05 44.05 1096.43 44.11 1105.82 44.05 C 1131.37 88.10 1156.81 132.21 1182.35 176.26 C 1207.65 132.17 1232.99 88.09 1258.53 44.14 C 1267.38 44.08 1276.24 43.98 1285.10 44.13 C 1287.29 43.82 1286.79 46.62 1286.94 47.95 C 1286.85 125.61 1287.03 203.26 1286.85 280.92 C 1276.43 281.11 1266.00 280.93 1255.57 281.02 C 1255.60 224.54 1255.53 168.06 1255.60 111.58 C 1231.05 153.75 1206.83 196.11 1182.31 238.30 C 1157.78 196.24 1133.48 154.05 1108.96 111.99 C 1108.83 168.30 1109.05 224.61 1108.85 280.92 C 1098.44 281.11 1088.02 280.92 1077.61 281.04 C 1077.58 202.06 1077.48 123.07 1077.66 44.09 Z" />
</g>
</svg>
