<?xml version="1.0" encoding="utf-8"?>
<!-- Generator: Adobe Illustrator 20.1.0, SVG Export Plug-In . SVG Version: 6.00 Build 0)  -->
<svg version="1.1" id="Слой_1" xmlns="http://www.w3.org/2000/svg" xmlns:xlink="http://www.w3.org/1999/xlink" x="0px" y="0px"
	 viewBox="0 0 10 9" style="enable-background:new 0 0 10 9;" xml:space="preserve">
<style type="text/css">
	.st0{enable-background:new    ;}
	.st1{fill:#60606C;}
</style>
<title>mail_outline - material</title>
<desc>Created with Sketch.</desc>
<g id="Symbols">
	<g id="footer" transform="translate(-1347.000000, -89.000000)">
		<g id="авторизация">
			<g transform="translate(310.000000, 0.000000)">
				<g transform="translate(1036.000000, 43.000000)">
					<g class="st0">
						<path class="st1" d="M10,46.8c0.3,0,0.5,0.1,0.7,0.3c0.2,0.2,0.3,0.4,0.3,0.7v6c0,0.3-0.1,0.5-0.3,0.7
							c-0.2,0.2-0.4,0.3-0.7,0.3H2c-0.3,0-0.5-0.1-0.7-0.3C1.1,54.3,1,54.1,1,53.8v-6c0-0.3,0.1-0.5,0.3-0.7
							c0.2-0.2,0.4-0.3,0.7-0.3H10z M6,50.3l4-2.5H2L6,50.3z M10,53.8v-5l-4,2.5l-4-2.5v5H10z"/>
					</g>
				</g>
			</g>
		</g>
	</g>
</g>
</svg>
