<?xml version="1.0" encoding="utf-8"?>
<!-- Generator: Adobe Illustrator 20.1.0, SVG Export Plug-In . SVG Version: 6.00 Build 0)  -->
<svg version="1.1" id="Слой_1" xmlns="http://www.w3.org/2000/svg" xmlns:xlink="http://www.w3.org/1999/xlink" x="0px" y="0px"
	 viewBox="0 0 14 11" style="enable-background:new 0 0 14 11;" xml:space="preserve">
<style type="text/css">
	.st0{fill:none;}
	.st1{enable-background:new    ;}
	.st2{fill:#35353E;}
</style>
<title>mail</title>
<desc>Created with Sketch.</desc>
<g id="Symbols">
	<g id="header" transform="translate(-613.000000, -15.000000)">
		<g id="top">
			<g>
				<g id="mail" transform="translate(608.000000, 6.000000)">
					<rect id="Rectangle-10" class="st0" width="24" height="27"/>
					<g class="st1">
						<path class="st2" d="M17.3,9.1c0.4,0,0.7,0.1,0.9,0.4s0.4,0.6,0.4,0.9v8c0,0.4-0.1,0.7-0.4,0.9s-0.6,0.4-0.9,0.4H6.7
							c-0.4,0-0.7-0.1-0.9-0.4s-0.4-0.6-0.4-0.9v-8c0-0.4,0.1-0.7,0.4-0.9s0.6-0.4,0.9-0.4H17.3z M12,13.7l5.3-3.3H6.7L12,13.7z
							 M17.3,18.4v-6.7L12,15.1l-5.3-3.3v6.7H17.3z"/>
					</g>
				</g>
			</g>
		</g>
	</g>
</g>
</svg>
