<?xml version="1.0" encoding="utf-8"?>
<!-- Generator: Adobe Illustrator 20.1.0, SVG Export Plug-In . SVG Version: 6.00 Build 0)  -->
<svg version="1.1" id="Слой_1" xmlns="http://www.w3.org/2000/svg" xmlns:xlink="http://www.w3.org/1999/xlink" x="0px" y="0px"
	 viewBox="0 0 15 15" style="enable-background:new 0 0 15 15;" xml:space="preserve">
<style type="text/css">
	.st0{fill:none;}
	.st1{enable-background:new    ;}
	.st2{fill:#35353E;}
</style>
<title>search-btn</title>
<desc>Created with Sketch.</desc>
<g id="Symbols">
	<g id="header" transform="translate(-1602.000000, -12.000000)">
		<g id="top">
			<g>
				<g id="search-btn" transform="translate(1597.000000, 6.000000)">
					<rect id="Rectangle-10" class="st0" width="24" height="27"/>
					<g class="st1">
						<path class="st2" d="M15.9,15.1l-0.2,0.3l4.2,4.3L18.7,21l-4.2-4.3l-0.3,0.2c-1,0.7-2.1,1-3.2,1c-1.6,0-3-0.6-4.2-1.8
							C5.6,15,5,13.6,5,11.9s0.6-3,1.7-4.2C7.9,6.6,9.3,6,10.9,6s3,0.6,4.2,1.7c1.2,1.2,1.7,2.6,1.7,4.2
							C16.9,13.1,16.6,14.2,15.9,15.1z M14.3,8.6c-0.9-0.9-2-1.4-3.3-1.4c-1.3,0-2.4,0.5-3.3,1.4c-0.9,0.9-1.4,2-1.4,3.3
							c0,1.3,0.5,2.4,1.4,3.3c0.9,0.9,2,1.4,3.3,1.4c1.3,0,2.4-0.5,3.3-1.4c0.9-0.9,1.4-2,1.4-3.3C15.7,10.7,15.2,9.6,14.3,8.6z"/>
					</g>
				</g>
			</g>
		</g>
	</g>
</g>
</svg>
