<?xml version="1.0" encoding="utf-8"?>
<!-- Generator: Adobe Illustrator 20.1.0, SVG Export Plug-In . SVG Version: 6.00 Build 0)  -->
<svg version="1.1" id="Слой_1" xmlns="http://www.w3.org/2000/svg" xmlns:xlink="http://www.w3.org/1999/xlink" x="0px" y="0px"
	 viewBox="0 0 8 11" style="enable-background:new 0 0 8 11;" xml:space="preserve">
<style type="text/css">
	.st0{enable-background:new    ;}
	.st1{fill:#60606C;}
</style>
<title>unlock - anticon</title>
<desc>Created with Sketch.</desc>
<g id="Symbols">
	<g id="footer" transform="translate(-1348.000000, -135.000000)">
		<g id="авторизация">
			<g transform="translate(310.000000, 0.000000)">
				<g transform="translate(1036.000000, 43.000000)">
					<g class="st0">
						<path class="st1" d="M2.8,96.8h6.4c0.2,0,0.4,0.1,0.5,0.2s0.2,0.3,0.2,0.5l0,4.4c0,0.2-0.1,0.4-0.2,0.6s-0.3,0.2-0.6,0.2H2.8
							c-0.2,0-0.4-0.1-0.5-0.2S2,102.2,2,101.9v-5.5c0-0.6,0.1-1.1,0.3-1.6c0.2-0.5,0.5-0.9,0.8-1.3s0.8-0.7,1.3-0.9
							c0.5-0.2,1-0.3,1.5-0.3s1.1,0.1,1.5,0.3c0.5,0.2,0.9,0.5,1.3,0.9c0.4,0.4,0.7,0.8,0.9,1.3c0,0.1,0,0.2,0,0.3s-0.1,0.1-0.3,0.1
							H9.2c-0.2,0-0.3-0.1-0.4-0.2c-0.2-0.5-0.5-0.8-0.6-1c-0.3-0.3-0.6-0.5-1-0.7C6.8,93.1,6.4,93,6,93c-0.4,0-0.8,0.1-1.2,0.3l0,0
							c-0.4,0.2-0.7,0.4-1,0.7c-0.3,0.3-0.5,0.7-0.7,1.1c-0.2,0.4-0.3,0.9-0.3,1.3V96.8z M9.2,97.6H2.8v4.4c0,0,0,0,0,0h6.3
							c0,0,0,0,0,0V97.6z M5.3,98.8c0-0.2,0.1-0.4,0.2-0.5s0.3-0.2,0.5-0.2s0.3,0.1,0.5,0.2s0.2,0.3,0.2,0.5c0,0.2-0.1,0.4-0.3,0.6
							v1.1c0,0.1,0,0.2-0.1,0.3s-0.2,0.1-0.3,0.1s-0.2,0-0.3-0.1s-0.1-0.2-0.1-0.3v-1.1C5.4,99.2,5.3,99.1,5.3,98.8z"/>
					</g>
				</g>
			</g>
		</g>
	</g>
</g>
</svg>
