<?xml version="1.0" standalone="no"?>
<!DOCTYPE svg PUBLIC "-//W3C//DTD SVG 1.1//EN" "http://www.w3.org/Graphics/SVG/1.1/DTD/svg11.dtd" >
<svg xmlns="http://www.w3.org/2000/svg" xmlns:xlink="http://www.w3.org/1999/xlink" version="1.1">
<metadata></metadata>
<defs>
<font id="systopiebold" horiz-adv-x="550" >
<font-face units-per-em="1000" ascent="773" descent="-227" />
<missing-glyph horiz-adv-x="283" />
<glyph horiz-adv-x="0" />
<glyph unicode="&#xd;" horiz-adv-x="0" />
<glyph unicode=" "  horiz-adv-x="283" />
<glyph unicode="&#x09;" horiz-adv-x="283" />
<glyph unicode="&#xa0;" horiz-adv-x="283" />
<glyph unicode="!" horiz-adv-x="299" d="M68 238l-8 459q0 31 10.5 41.5t41.5 10.5h127l-9 -460q-1 -31 -10.5 -41t-39.5 -10h-112zM60 0v127q0 31 10.5 41.5t41.5 10.5h127v-127q0 -32 -10 -42t-41 -10h-128z" />
<glyph unicode="&#x22;" horiz-adv-x="461" d="M82 714h127l-9 -238q-1 -29 -12 -40t-38 -11h-110l-9 239q-2 29 9 39.5t42 10.5zM302 714h129l-9 -238q-2 -29 -13.5 -40t-37.5 -11h-111l-8 239q-1 30 9.5 40t40.5 10z" />
<glyph unicode="#" horiz-adv-x="707" d="M396 0v179h-85v-179h-127q-31 0 -41.5 10t-10.5 40v129h-102v110q0 31 10.5 41t41.5 10h595v-111q0 -30 -10.5 -40t-41.5 -10h-50v-129q0 -30 -10.5 -40t-41.5 -10h-127zM311 570h85v127q0 31 10 41t40 10h129v-178h102v-110q0 -32 -10.5 -42t-41.5 -10h-595v110 q0 31 10.5 41.5t41.5 10.5h50v178h127q31 0 41.5 -10t10.5 -41v-127z" />
<glyph unicode="$" horiz-adv-x="591" d="M100 162h179q65 0 83.5 10.5t18.5 48.5v38l-215 47q-126 27 -126 187q0 115 37.5 161t132.5 56v89q0 31 10.5 41.5t41.5 10.5h110v-137h153v-110q0 -31 -10 -41t-41 -10h-178q-52 0 -69 -8.5t-17 -34.5v-46l238 -52q103 -25 103 -191q0 -111 -41.5 -158.5t-137.5 -57.5 v-90q0 -31 -10 -41t-41 -10h-111v136h-162v110q0 31 10.5 41.5t41.5 10.5z" />
<glyph unicode="%" horiz-adv-x="536" d="M491 566l-291 -516q-17 -30 -32 -40t-36 -10h-102v84q0 38 16 64l290 516q17 30 31.5 40t36.5 10h102v-84q0 -36 -15 -64zM328 179h127q31 0 41 -10.5t10 -41.5v-127h-128q-31 0 -40.5 10t-9.5 40v129zM30 714h127q31 0 41.5 -10t10.5 -40v-129h-129q-30 0 -40 10.5 t-10 41.5v127z" />
<glyph unicode="&#x26;" horiz-adv-x="708" d="M584 289v-59q0 -63 -10.5 -103.5t-38 -73t-80.5 -47.5t-135 -15q-74 0 -124 10t-81 28t-47.5 51t-22 71t-5.5 96q0 80 19 115t80 54l-33 77q-19 45 -20 85t16 70.5t55.5 48t94.5 17.5h256v-110q0 -31 -10.5 -41t-41.5 -10h-195l61 -145q17 -30 13.5 -57t-38.5 -42 l-96 -39v-32q0 -66 17 -79.5t102 -13.5q59 0 76.5 13t17.5 63v68q0 80 33 116.5t120 36.5h111v-102q0 -31 -10.5 -41t-40.5 -10h-43z" />
<glyph unicode="'" horiz-adv-x="239" d="M82 714h127l-9 -238q-1 -29 -12 -40t-38 -11h-110l-9 239q-2 29 9 39.5t42 10.5z" />
<glyph unicode="(" horiz-adv-x="374" d="M209 476v-442q0 -52 17 -69t68 -17q31 0 40.5 -9.5t9.5 -40.5v-102h-67q-134 0 -190.5 55t-56.5 183v442q0 129 56.5 183.5t190.5 54.5h67v-102q0 -31 -9.5 -40.5t-40.5 -9.5q-51 0 -68 -17t-17 -69z" />
<glyph unicode=")" horiz-adv-x="374" d="M165 34v442q0 52 -17 69t-68 17q-31 0 -40.5 9.5t-9.5 40.5v102h67q134 0 190.5 -54.5t56.5 -183.5v-442q0 -128 -56.5 -183t-190.5 -55h-67v102q0 31 9.5 40.5t40.5 9.5q51 0 68 17t17 69z" />
<glyph unicode="*" horiz-adv-x="474" d="M80 719h48l-31 95l97 31q30 9 42.5 2.5t22.5 -35.5l15 -45l80 57l60 -82q18 -25 16 -39t-28 -32l-38 -28l80 -59l-60 -82q-18 -25 -32 -27t-40 16l-38 27l-30 -93l-98 31q-29 10 -35.5 23t3.5 42l14 45h-98v102q0 31 10 41t40 10z" />
<glyph unicode="+" horiz-adv-x="518" d="M80 391h94v153h119q32 0 41.5 -10t9.5 -41v-102h144v-102q0 -31 -9.5 -41t-40.5 -10h-94v-170h-118q-31 0 -41.5 10t-10.5 41v119h-144v102q0 30 10 40.5t40 10.5z" />
<glyph unicode="," horiz-adv-x="239" d="M80 179h129v-145q0 -46 -15 -69l-28 -50q-17 -30 -30 -41t-38 -11h-68v264q0 31 10 41.5t40 10.5z" />
<glyph unicode="-" horiz-adv-x="366" d="M336 204h-254q-31 0 -41.5 10t-10.5 40v104h256q30 0 40 -10.5t10 -41.5v-102z" />
<glyph unicode="." horiz-adv-x="238" d="M80 179h128v-129q0 -30 -10 -40t-41 -10h-127v127q0 31 10 41.5t40 10.5z" />
<glyph unicode="/" horiz-adv-x="505" d="M460 583l-260 -533q-24 -50 -68 -50h-102v67q0 31 16 64l259 533q24 50 68 50h102v-67q0 -33 -15 -64z" />
<glyph unicode="0" horiz-adv-x="658" d="M329 722q161 0 225 -74.5t64 -273.5q0 -117 -12.5 -188t-47 -116t-88 -61.5t-141.5 -16.5t-141.5 16.5t-88 61.5t-47 116t-12.5 188q0 199 64 273.5t225 74.5zM329 144q28 0 43.5 2t30 11t20.5 21.5t10.5 41.5t5.5 62.5t1 91.5t-2 89.5t-7.5 56t-19.5 33.5t-31.5 13 t-50.5 4t-50.5 -4t-31.5 -13t-19 -33.5t-7 -55.5t-2 -90q0 -58 1 -91.5t5.5 -62.5t10.5 -41.5t20 -22t29.5 -11t43.5 -1.5z" />
<glyph unicode="1" horiz-adv-x="372" d="M40 714h221q31 0 41 -10t10 -40v-664h-128q-31 0 -40.5 10t-9.5 42v501h-44q-30 0 -40 10t-10 41v110z" />
<glyph unicode="2" horiz-adv-x="582" d="M542 0h-451q-31 0 -41 10t-10 41v170q0 53 19 86.5t68 56.5l236 108v29q0 33 -13 42.5t-63 9.5h-179q-31 0 -41 10t-10 41v110h221q151 0 207.5 -50t56.5 -180q0 -61 -22.5 -95.5t-71.5 -57.5l-238 -109v-61h281q31 0 41 -10t10 -41v-110z" />
<glyph unicode="3" horiz-adv-x="556" d="M287 553h-187q-31 0 -41.5 10t-10.5 41v110h383q31 0 41 -10t10 -41v-93l-95 -145l18 -5q64 -20 87.5 -54.5t23.5 -110.5q0 -72 -12 -116.5t-46 -77.5t-96 -47t-160 -14h-162v111q0 28 11.5 39.5t39.5 11.5h111q42 0 63.5 0.5t41.5 4.5t27.5 8t13.5 17t6.5 25.5t0.5 37.5 v15l-130 39q-48 16 -48 56q0 20 14 43z" />
<glyph unicode="4" horiz-adv-x="675" d="M381 298v240l-156 -240h156zM347 714h161q31 0 41.5 -10t10.5 -40v-366h25q31 0 40.5 -10t9.5 -41v-111h-75v-84q0 -32 -10.5 -42t-41.5 -10h-127v136h-289q-31 0 -41.5 10t-10.5 41v111l253 391q18 25 54 25z" />
<glyph unicode="5" horiz-adv-x="582" d="M363 279l-238 44q-80 14 -68 102l34 238q5 29 21 40t47 11h357v-110q0 -31 -10 -41t-41 -10l-224 -1l-13 -86l152 -28q87 -15 124.5 -54t37.5 -146q0 -132 -69 -185t-195 -53h-238v110q0 31 10 41t41 10h187q57 0 71 10t14 50v58z" />
<glyph unicode="6" horiz-adv-x="607" d="M308 145q54 0 67 14t13 71t-13.5 71t-71.5 14q-50 0 -63 -14t-13 -70q0 -55 14 -70.5t67 -15.5zM482 553h-43q-43 0 -70 -0.5t-52 -3t-38 -4.5t-25 -10.5t-16 -14t-7.5 -21.5t-3.5 -27.5v-36.5v-43l17 32q13 23 32 29.5t87 6.5q125 0 164.5 -47t39.5 -183 q0 -139 -63.5 -189t-200.5 -50q-152 0 -207.5 77t-55.5 282q0 79 5 130.5t21.5 95.5t42.5 68t72.5 41t107 23t150.5 6h94v-110q0 -31 -10 -41t-41 -10z" />
<glyph unicode="7" horiz-adv-x="573" d="M40 714h443q31 0 40.5 -10t9.5 -40v-111l-212 -368v-133q0 -31 -10 -41.5t-41 -10.5h-128v169q0 45 26 90l170 294h-246q-31 0 -41.5 10t-10.5 41v110z" />
<glyph unicode="8" horiz-adv-x="608" d="M304 442q49 0 63 14t14 54q0 39 -13 49.5t-64 10.5t-64 -10.5t-13 -49.5q0 -40 14 -54t63 -14zM304 298q-57 0 -71 -13t-14 -65q0 -46 14.5 -61t70.5 -15t70.5 15t14.5 61q0 52 -14 65t-71 13zM568 211q0 -113 -58.5 -166t-205.5 -53t-205.5 53t-58.5 166q0 111 86 163 q-78 45 -78 136q0 109 55 160.5t201 51.5t201 -51.5t55 -160.5q0 -90 -77 -136q85 -53 85 -163z" />
<glyph unicode="9" horiz-adv-x="598" d="M299 570q-52 0 -66.5 -14.5t-14.5 -69.5q0 -58 14 -71.5t71 -13.5q50 0 63.5 14t13.5 70q0 58 -14 71.5t-67 13.5zM116 162h51h52t41.5 1t35.5 2t26.5 4.5t21.5 7.5t14.5 11t11.5 15t5.5 20t4 25.5t0.5 32.5v42l-17 -32q-10 -20 -38 -28t-90 -8q-114 0 -154.5 48 t-40.5 183q0 142 55 189.5t200 47.5q70 0 115.5 -12t75.5 -34.5t45.5 -68t21 -100t5.5 -142.5q0 -58 -2 -97t-9 -78.5t-18.5 -64t-32 -48.5t-49 -37t-69 -23t-92 -14t-119.5 -4h-102v111q0 30 10 40.5t41 10.5z" />
<glyph unicode=":" horiz-adv-x="238" d="M80 468h128v-128q0 -31 -10 -41t-41 -10h-127v127q0 31 10 41.5t40 10.5zM30 179h127q31 0 41 -10.5t10 -41.5v-127h-128q-30 0 -40 10t-10 40v129z" />
<glyph unicode=";" horiz-adv-x="239" d="M80 179h129v-145q0 -46 -15 -69l-28 -50q-17 -30 -30 -41t-38 -11h-68v264q0 31 10 41.5t40 10.5zM80 468h129v-128q0 -31 -10.5 -41t-41.5 -10h-127v127q0 31 10 41.5t40 10.5z" />
<glyph unicode="&#x3c;" horiz-adv-x="545" d="M65 409l280 169q29 17 68 17h102v-110q0 -25 -11.5 -40t-40.5 -29l-170 -82v-3v-2l170 -83q29 -14 40.5 -28.5t11.5 -38.5v-111h-102q-41 0 -68 17l-280 168q-35 23 -35 78q0 59 35 78z" />
<glyph unicode="=" horiz-adv-x="468" d="M80 510h358v-102q0 -31 -10 -40.5t-40 -9.5h-358v102q0 30 10 40t40 10zM80 272h358v-102q0 -30 -10 -40.5t-40 -10.5h-358v102q0 31 10 41t40 10z" />
<glyph unicode="&#x3e;" horiz-adv-x="545" d="M200 578l280 -169q35 -19 35 -78q0 -55 -35 -78l-280 -168q-27 -17 -68 -17h-102v111q0 24 11.5 38.5t40.5 28.5l170 83v2v3l-170 82q-29 14 -40.5 29t-11.5 40v110h102q39 0 68 -17z" />
<glyph unicode="?" horiz-adv-x="582" d="M313 231v-180q0 -31 -10.5 -41t-40.5 -10h-120v221q0 120 94 157l128 49v83q0 26 -17 34.5t-68 8.5h-179q-31 0 -41 10t-10 41v110h230q76 0 121.5 -8.5t77.5 -33t44 -67t12 -112.5q0 -106 -20.5 -149t-73.5 -64z" />
<glyph unicode="@" horiz-adv-x="777" d="M423 187q0 -27 9.5 -35t41.5 -8q51 0 71.5 15t21.5 53h-102q-26 0 -34 -5.5t-8 -19.5zM465 -60h205q31 0 40.5 -10t9.5 -40v-102h-255q-88 0 -152 10t-118 36t-86.5 69t-50.5 109.5t-18 157.5q0 216 84 299.5t290 83.5q73 0 119.5 -4.5t89 -19t65.5 -41.5t36 -71.5 t13 -110.5v-85q0 -68 -21.5 -114.5t-61 -70.5t-85 -34t-104.5 -10q-120 0 -162 45t-42 142v25q0 73 42.5 108.5t110.5 35.5q46 0 54 -1l94 -7q-3 28 -10 38.5t-37 16t-101 5.5q-116 0 -155.5 -45.5t-39.5 -184.5q0 -72 9 -114t37.5 -69.5t74.5 -37t125 -9.5z" />
<glyph unicode="A" horiz-adv-x="709" d="M40 0v102q0 33 8 59l154 493q9 34 30.5 47t61.5 13h120q40 0 61 -13t32 -47l153 -493q9 -24 9 -59v-102h-102q-35 0 -48 10t-21 40l-22 86h-243l-24 -86q-6 -29 -19 -39.5t-48 -10.5h-102zM275 289h159l-77 281h-5z" />
<glyph unicode="B" horiz-adv-x="652" d="M110 714h256q123 0 176 -41t53 -155q0 -105 -80 -147q97 -48 97 -167t-60.5 -161.5t-185.5 -42.5h-306v664q0 30 10 40t40 10zM366 289h-127v-128h127q41 0 54.5 12t13.5 53q0 40 -13.5 51.5t-54.5 11.5zM358 552h-119v-119h119q34 0 46 11.5t12 48.5t-12 48t-46 11z" />
<glyph unicode="C" horiz-adv-x="593" d="M219 399v-85q0 -55 4.5 -82t26 -45t55 -22t101.5 -4h86q31 0 41 -10t10 -41v-110h-137q-69 0 -118 4.5t-92.5 17t-70.5 34.5t-47.5 57t-29 84.5t-8.5 116.5v85q0 101 19.5 163t67 95.5t111 45t168.5 11.5h137v-110q0 -31 -10 -41t-41 -10h-86q-68 0 -101.5 -4t-55 -22.5 t-26 -45.5t-4.5 -82z" />
<glyph unicode="D" horiz-adv-x="661" d="M111 714h204q52 0 90 -4.5t74.5 -17t61 -35t43.5 -57t28 -85t9 -116.5v-85q0 -79 -14 -135.5t-37.5 -91t-64 -54t-84 -26.5t-106.5 -7h-255v663q0 31 10 41t41 10zM315 553h-77v-392h77q84 0 105.5 25.5t21.5 127.5v85q0 102 -21.5 128t-105.5 26z" />
<glyph unicode="E" horiz-adv-x="568" d="M112 714h416v-110q0 -31 -10 -41t-40 -10h-239v-102h272v-120q0 -30 -10.5 -40t-40.5 -10h-221v-119h289v-110q0 -32 -10 -42t-40 -10h-418v664q0 30 10.5 40t41.5 10z" />
<glyph unicode="F" d="M110 714h400v-110q0 -31 -10 -41t-40 -10h-221v-120h254v-119q0 -30 -9.5 -40t-40.5 -10h-204v-212q0 -32 -10.5 -42t-41.5 -10h-127v664q0 30 10 40t40 10z" />
<glyph unicode="G" horiz-adv-x="626" d="M397 164v190q0 31 10.5 41t40.5 10h128v-283q0 -26 -6.5 -41t-27.5 -32q-37 -26 -103.5 -44.5t-134.5 -18.5q-57 0 -96.5 8t-73 28.5t-53.5 56.5t-30.5 93t-10.5 137v85q0 101 19.5 163t67 95.5t111 45t168.5 11.5h137v-111q0 -31 -10.5 -41t-40.5 -10h-86 q-68 0 -101.5 -4t-55 -22t-26 -45t-4.5 -82v-85q0 -42 1 -66t5.5 -44.5t9.5 -29t19 -14.5t27.5 -7t39.5 -1q56 0 76 17z" />
<glyph unicode="H" horiz-adv-x="673" d="M613 664v-664h-127q-31 0 -41.5 10t-10.5 42v229h-195v-281h-127q-31 0 -41.5 10t-10.5 42v662h128q31 0 41 -10t10 -40v-213h195v263h128q30 0 40.5 -10t10.5 -40z" />
<glyph unicode="I" horiz-adv-x="299" d="M239 714v-662q0 -32 -10.5 -42t-41.5 -10h-127v664q0 30 10 40t40 10h129z" />
<glyph unicode="J" horiz-adv-x="567" d="M507 714v-493q0 -229 -238 -229q-112 0 -170.5 50.5t-58.5 169.5v51h119q31 0 40.5 -10t9.5 -41q0 -38 11 -49t49 -11q39 0 49.5 10.5t10.5 49.5v450q0 32 10 42t41 10h127z" />
<glyph unicode="K" horiz-adv-x="639" d="M60 0v664q0 30 10 40t40 10h129v-271h5l168 221q39 50 85 50h93v-102q0 -39 -25 -67l-171 -193l180 -182q25 -27 25 -68v-102h-94q-41 0 -85 52l-176 204h-5v-204q0 -32 -10.5 -42t-41.5 -10h-127z" />
<glyph unicode="L" d="M510 0h-400q-30 0 -40 10t-10 42v662h127q31 0 41 -10t10 -40v-502h222q30 0 40 -10.5t10 -41.5v-110z" />
<glyph unicode="M" horiz-adv-x="902" d="M451 264l213 450h127q31 0 41 -10t10 -40v-664h-127q-31 0 -41 10t-10 40v298l-143 -290q-20 -42 -70 -42q-49 0 -69 42l-143 290v-298q0 -30 -10.5 -40t-41.5 -10h-127v665q0 30 10 39.5t40 9.5h129z" />
<glyph unicode="N" horiz-adv-x="732" d="M493 314v350q0 30 10.5 40t41.5 10h127v-714h-127q-33 0 -53 26l-254 374v-348q0 -32 -10 -42t-41 -10h-127v714h127q34 0 52 -26z" />
<glyph unicode="O" horiz-adv-x="658" d="M329 723q77 0 127.5 -13t89 -47.5t55.5 -99t17 -164.5v-85q0 -100 -17 -164t-55.5 -98.5t-89 -47.5t-127.5 -13t-127.5 13t-89 47.5t-55.5 98.5t-17 164v85q0 100 17 164.5t55.5 99t89 47.5t127.5 13zM440 314v85q0 60 -3.5 91t-17.5 48t-32 20t-58 3t-57.5 -3t-31.5 -20 t-17.5 -48t-3.5 -91v-85q0 -48 3 -76t8.5 -46.5t20 -26t30.5 -10t48 -2.5t48 2.5t31 10t20.5 26t8.5 46.5t3 76z" />
<glyph unicode="P" horiz-adv-x="644" d="M111 714h230q146 0 204.5 -58t58.5 -197q0 -137 -61 -196t-202 -59h-102v-153q0 -31 -10.5 -41t-40.5 -10h-128v663q0 31 10 41t41 10zM349 553h-110v-196h110q53 0 69 17t16 85q0 62 -16 78t-69 16z" />
<glyph unicode="Q" horiz-adv-x="693" d="M543 153h59q31 0 41 -10t10 -41v-102h-187q-25 0 -68 -4.5t-69 -4.5q-77 0 -127 13t-88.5 47.5t-56 98.5t-17.5 164v85q0 100 17.5 164.5t56 99t88.5 47.5t127 13t127.5 -13t89 -47.5t56 -99t17.5 -164.5v-85q0 -114 -76 -161zM440 314v85q0 60 -3.5 91t-17.5 48t-32 20 t-58 3t-57.5 -3t-31.5 -20t-17.5 -48t-3.5 -91v-85q0 -48 3 -76t8.5 -46.5t20 -26t30.5 -10t48 -2.5t48 2.5t31 10t20.5 26t8.5 46.5t3 76z" />
<glyph unicode="R" horiz-adv-x="654" d="M111 714h246q143 0 195 -55.5t52 -190.5q0 -85 -24 -135t-77 -76l63 -118q21 -36 21 -63v-76h-111q-39 0 -52 29l-89 201h-97v-179q0 -31 -10 -41t-41 -10h-127v663q0 31 10 41t41 10zM349 553h-111v-179h111q53 0 69 16t16 78q0 56 -16 70.5t-69 14.5z" />
<glyph unicode="S" horiz-adv-x="590" d="M100 161h179q65 0 83.5 10.5t18.5 49.5v38l-215 48q-126 27 -126 186q0 135 53 178t203 43h229v-110q0 -31 -10 -41.5t-41 -10.5h-178q-53 0 -69.5 -7.5t-16.5 -34.5v-47l238 -54q55 -12 78.5 -59t23.5 -129q0 -69 -14.5 -112.5t-49.5 -67.5t-82.5 -32.5t-124.5 -8.5 h-231v110q0 31 10.5 41t41.5 10z" />
<glyph unicode="T" horiz-adv-x="605" d="M209 0v553h-179v111q0 30 10.5 40t41.5 10h493v-110q0 -31 -10.5 -41t-41.5 -10h-135v-501q0 -32 -10 -42t-42 -10h-127z" />
<glyph unicode="U" horiz-adv-x="660" d="M331 -8q-145 0 -213 62.5t-68 199.5v460h127q31 0 41.5 -10t10.5 -42v-408q0 -59 16.5 -76t85.5 -17q67 0 84.5 17t17.5 76v408q0 32 9.5 42t40.5 10h127v-460q0 -137 -67 -199.5t-212 -62.5z" />
<glyph unicode="V" horiz-adv-x="709" d="M40 612v102h102q35 0 47 -10t21 -42l142 -518h5l143 520q9 30 20.5 40t46.5 10h102v-102q0 -34 -9 -60l-152 -493q-11 -34 -32.5 -46.5t-61.5 -12.5h-118q-41 0 -62 12.5t-32 46.5l-154 493q-8 26 -8 60z" />
<glyph unicode="W" horiz-adv-x="1032" d="M992 714v-102q0 -19 -9 -60l-102 -493q-6 -33 -29 -46t-64 -13h-119q-39 0 -57 12t-28 47l-68 259l-68 -259q-10 -35 -28 -47t-57 -12h-119q-41 0 -63.5 12.5t-30.5 46.5l-102 493q-8 46 -8 60v102h102q36 0 48.5 -10.5t18.5 -41.5l101 -518h4l109 416q6 31 19 41.5 t48 10.5h52q35 0 46.5 -10t20.5 -42l109 -416h4l100 518q6 31 19 41.5t49 10.5h102z" />
<glyph unicode="X" horiz-adv-x="692" d="M53 143l162 227l-144 201q-14 21 -14 41v102h102q35 0 53 -25l134 -207l134 207q18 25 53 25h102v-102q0 -20 -14 -41l-144 -201l162 -227q13 -22 13 -41v-102h-102q-35 0 -53 26l-151 230l-151 -230q-18 -26 -53 -26h-102v102q0 19 13 41z" />
<glyph unicode="Y" horiz-adv-x="672" d="M426 286v-234q0 -32 -10.5 -42t-41.5 -10h-127v286l-203 285q-14 21 -14 41v102h102q35 0 53 -25l151 -231l151 231q18 25 53 25h102v-102q0 -22 -13 -41z" />
<glyph unicode="Z" horiz-adv-x="573" d="M533 561l-280 -399h229q31 0 41 -10.5t10 -40.5v-111h-442q-31 0 -41 10t-10 41v102l280 400h-212q-31 0 -41 10t-10 41v110h425q31 0 41 -10t10 -41v-102z" />
<glyph unicode="[" horiz-adv-x="376" d="M82 714h264v-102q0 -30 -10.5 -40t-41.5 -10h-85v-614h85q31 0 41.5 -10t10.5 -40v-102h-264q-31 0 -41.5 10t-10.5 40v818q0 30 10.5 40t41.5 10z" />
<glyph unicode="\" horiz-adv-x="505" d="M305 50l-260 533q-15 31 -15 64v67h102q44 0 68 -50l259 -533q16 -33 16 -64v-67h-102q-44 0 -68 50z" />
<glyph unicode="]" horiz-adv-x="376" d="M30 714h264q31 0 41.5 -10t10.5 -40v-818q0 -30 -10.5 -40t-41.5 -10h-264v102q0 30 10.5 40t41.5 10h85v614h-85q-31 0 -41.5 10t-10.5 40v102z" />
<glyph unicode="^" horiz-adv-x="418" d="M283 859l95 -103q18 -19 18 -53v-85h-94q-16 0 -23.5 5t-18.5 24l-51 94l-51 -94q-11 -19 -18.5 -24t-24.5 -5h-93v85q0 34 18 53l95 103q11 14 48 14h51q35 0 49 -14z" />
<glyph unicode="_" horiz-adv-x="468" d="M438 -154h-358q-30 0 -40 10.5t-10 41.5v102h358q30 0 40 -10.5t10 -41.5v-102z" />
<glyph unicode="`" horiz-adv-x="247" d="M161 832l58 -105q14 -24 14 -49v-60h-68q-38 0 -53 17l-71 77q-29 31 -29 59v85h102q33 0 47 -24z" />
<glyph unicode="a" horiz-adv-x="566" d="M202 179q0 -20 12 -27t47 -7q52 0 68 12t16 56h-101q-25 0 -33.5 -7.5t-8.5 -26.5zM516 306v-306h-110q-24 0 -33 10t-18 41l-9 32l-15 -30q-19 -41 -43 -51.5t-95 -10.5q-88 0 -120.5 41.5t-32.5 146.5v25q0 72 42.5 108.5t110.5 36.5q38 0 54 -2l94 -7q-2 33 -17 42 t-63 9h-136q-31 0 -41 10t-10 41v102h187q149 0 202 -53t53 -185z" />
<glyph unicode="b" horiz-adv-x="601" d="M382 272q0 62 -6.5 87.5t-20.5 33t-50 7.5q-53 0 -64.5 -18.5t-11.5 -92.5v-34q0 -73 11.5 -91.5t64.5 -18.5q36 0 50 7.5t20.5 33t6.5 86.5zM229 461l15 31q21 41 40 51t81 10q117 0 156.5 -61t39.5 -220q0 -158 -54.5 -219.5t-209.5 -61.5q-138 0 -192.5 69t-54.5 195 v493h128q31 0 41 -10t10 -41v-236z" />
<glyph unicode="c" horiz-adv-x="479" d="M337 153h51q31 0 41 -10t10 -41v-102h-102q-175 0 -236 58t-61 214t61 214t236 58h102v-102q0 -31 -10 -41t-41 -10h-51q-83 0 -101 -18.5t-18 -100.5q0 -83 18 -101t101 -18z" />
<glyph unicode="d" horiz-adv-x="600" d="M225 272q0 -61 6.5 -86.5t20.5 -33t50 -7.5q52 0 64 19t12 91v34q0 73 -12 92t-64 19q-36 0 -50 -7.5t-20.5 -33t-6.5 -87.5zM378 83l-15 -30q-19 -40 -42.5 -51t-78.5 -11q-116 0 -155.5 61t-39.5 220t39.5 220t155.5 61q53 0 77 -11.5t44 -49.5l15 -31v287h128 q31 0 41 -10t10 -41v-697h-119q-24 0 -33 10t-18 41z" />
<glyph unicode="e" horiz-adv-x="540" d="M210 323h119v17q0 38 -11.5 49t-48.5 11t-47 -13t-12 -64zM448 204h-233q2 -33 19.5 -42.5t61.5 -9.5h135q31 0 41.5 -10t10.5 -40v-102h-205q-136 0 -187 63t-51 209q0 154 51.5 217t177.5 63q113 0 172 -46t59 -166v-86q0 -30 -10.5 -40t-41.5 -10z" />
<glyph unicode="f" horiz-adv-x="428" d="M268 545h120v-102q0 -32 -10.5 -42t-41.5 -10h-68v-339q0 -32 -10 -42t-40 -10h-120v391h-68v102q0 31 10 41.5t40 10.5h18q0 113 50 158.5t172 45.5h68v-102q0 -32 -10.5 -42t-41.5 -10q-49 0 -58.5 -8.5t-9.5 -41.5z" />
<glyph unicode="g" horiz-adv-x="600" d="M218 272q0 -61 6.5 -86.5t21 -33t49.5 -7.5q53 0 64.5 18.5t11.5 91.5v34q0 74 -11.5 92.5t-64.5 18.5q-35 0 -49.5 -7.5t-21 -33.5t-6.5 -87zM550 544v-483q0 -149 -61 -207t-220 -58h-212v102q0 31 10 41t41 10h153q76 0 93 18t17 99v17l-14 -30q-19 -39 -44 -50.5 t-78 -11.5q-116 0 -155.5 61t-39.5 220t39.5 220t155.5 61q53 0 78 -11.5t44 -49.5l14 -31l9 32q9 31 18.5 41t32.5 10h119z" />
<glyph unicode="h" horiz-adv-x="601" d="M50 51v697h127q31 0 41 -10t10 -41v-236l15 31q20 40 44.5 50.5t93.5 10.5q30 0 48.5 -1.5t40.5 -7t34.5 -17t24.5 -31t17 -50t5 -72.5v-374h-127q-31 0 -41 10t-10 41v281q0 45 -12 56.5t-56 11.5q-45 0 -61 -16t-16 -61v-323h-127q-31 0 -41 10t-10 41z" />
<glyph unicode="i" horiz-adv-x="279" d="M229 493v-493h-129q-30 0 -40 10t-10 42v493h127q31 0 41.5 -10.5t10.5 -41.5z" />
<glyph unicode="j" horiz-adv-x="279" d="M50 34v459q0 31 10 41t41 10h128v-510q0 -129 -56.5 -183.5t-190.5 -54.5h-68v102q0 31 10 40.5t41 9.5q58 0 71.5 13t13.5 73z" />
<glyph unicode="k" horiz-adv-x="570" d="M50 0v697q0 31 10 41.5t42 10.5h127v-391h5l100 135q38 52 84 52h94v-102q0 -45 -25 -69l-95 -90l103 -114q25 -25 25 -68v-102h-93q-50 0 -84 52l-109 152h-5v-152q0 -32 -10.5 -42t-41.5 -10h-127z" />
<glyph unicode="l" horiz-adv-x="343" d="M228 697v-493q0 -18 0.5 -24t3.5 -14t10 -10t20 -2q31 0 41 -10.5t10 -41.5v-102h-67q-114 0 -155 40t-41 164v545h127q31 0 41 -10.5t10 -41.5z" />
<glyph unicode="m" horiz-adv-x="891" d="M356 51v281q0 46 -9.5 57t-50.5 11t-54.5 -16t-13.5 -61v-323h-127q-31 0 -41 10t-10 41v493h110q24 0 33 -10t18 -41l9 -32l15 31q21 41 41.5 51t88.5 10q44 0 71 -5t52.5 -26.5t36.5 -61.5l14 30q19 41 43 52t89 11q42 0 64.5 -2t46 -11.5t34.5 -28.5t18 -52.5t7 -84.5 v-374h-128q-31 0 -41 10t-10 41v281q0 46 -9 57t-50 11t-54.5 -15.5t-13.5 -61.5v-323h-128q-31 0 -41 10t-10 41z" />
<glyph unicode="n" horiz-adv-x="602" d="M373 51v281q0 45 -11.5 56.5t-56.5 11.5q-44 0 -60 -16t-16 -61v-323h-128q-31 0 -41 10t-10 41v493h111q23 0 32.5 -10t18.5 -41l8 -32l15 31q20 40 45.5 50.5t101.5 10.5q30 0 48.5 -1.5t40.5 -7t34.5 -17t24.5 -31t17 -50t5 -72.5v-374h-128q-30 0 -40.5 10t-10.5 41z " />
<glyph unicode="o" horiz-adv-x="573" d="M286 400q-46 0 -57 -20t-11 -108q0 -63 5 -88t17.5 -32.5t45.5 -7.5t45.5 7.5t17.5 32.5t5 88q0 88 -11 108t-57 20zM286 -8q-139 0 -192.5 62t-53.5 218q0 155 53.5 217.5t192.5 62.5t193 -62.5t54 -217.5t-54 -217.5t-193 -62.5z" />
<glyph unicode="p" horiz-adv-x="600" d="M382 272q0 61 -6.5 87t-21 33.5t-49.5 7.5q-53 0 -64.5 -18.5t-11.5 -92.5v-34q0 -73 11.5 -91.5t64.5 -18.5q35 0 49.5 7.5t21 33t6.5 86.5zM229 461l15 31q20 38 44 49.5t77 11.5q116 0 155.5 -61t39.5 -220t-39.5 -220t-155.5 -61q-54 0 -78 11.5t-43 50.5l-15 30 v-287h-128q-31 0 -41 10t-10 41v697h119q24 0 33 -10t18 -41z" />
<glyph unicode="q" horiz-adv-x="601" d="M219 272q0 -87 13 -107t63 -20q53 0 65 19t12 91v34q0 73 -12 92t-65 19q-35 0 -49 -7.5t-20.5 -33.5t-6.5 -87zM357 492l15 -31l8 32q9 31 18.5 41t33.5 10h119v-697q0 -31 -10.5 -41t-40.5 -10h-128v287l-15 -30q-19 -39 -43.5 -50.5t-77.5 -11.5q-118 0 -157 61 t-39 220t39 220t157 61q53 0 77 -11.5t44 -49.5z" />
<glyph unicode="r" horiz-adv-x="446" d="M212 493l8 -35l15 31q15 30 34.5 42.5t52.5 12.5h94v-102q0 -31 -10 -41t-41 -10h-34q-56 0 -79 -25.5t-23 -108.5v-257h-128q-31 0 -41 10t-10 41v493h111q23 0 32.5 -10t18.5 -41z" />
<glyph unicode="s" horiz-adv-x="488" d="M40 374q0 84 48 127t139 43h204v-102q0 -31 -10.5 -41t-40.5 -10h-179q-17 0 -17 -17v-10l162 -38q55 -12 78.5 -45.5t23.5 -111.5q0 -83 -48 -126t-139 -43h-221v102q0 31 10 40.5t40 9.5h196q17 0 17 17v12l-161 37q-56 13 -79 44.5t-23 111.5z" />
<glyph unicode="t" horiz-adv-x="412" d="M229 391v-137q0 -72 15.5 -87t86.5 -15q31 0 41 -9.5t10 -40.5v-102h-68q-73 0 -120.5 11t-81 39.5t-48 77.5t-14.5 126v426h128q31 0 41 -10t10 -41v-85h137v-102q0 -31 -10.5 -41t-41.5 -10h-85z" />
<glyph unicode="u" horiz-adv-x="593" d="M228 493v-289q0 -37 14 -48t54 -11t54 13.5t14 62.5v323h128q31 0 41 -10t10 -41v-493h-111q-24 0 -34 10.5t-17 40.5l-8 41l-24 -49q-13 -27 -41 -39.5t-88 -12.5q-98 0 -134 43.5t-36 169.5v340h127q31 0 41 -10t10 -41z" />
<glyph unicode="v" horiz-adv-x="573" d="M40 443v102h110q36 0 49.5 -10.5t19.5 -41.5l66 -339h3l66 339q7 31 20 41.5t49 10.5h110v-102q0 -43 -8 -69l-84 -306q-9 -36 -35 -52t-77 -16h-85q-51 0 -77 16t-35 52l-84 306q-8 26 -8 69z" />
<glyph unicode="w" horiz-adv-x="914" d="M40 443v102h110q36 0 50 -10.5t19 -41.5l57 -339h4l41 220q10 58 37.5 80t97.5 22q71 0 99 -22t38 -80l40 -220h5l57 339q5 31 18 41.5t51 10.5h110v-102q0 -23 -8 -69l-72 -306q-10 -40 -34.5 -54t-81.5 -14h-62q-60 0 -87.5 17.5t-34.5 67.5l-35 183h-4l-35 -183 q-9 -50 -35.5 -67.5t-86.5 -17.5h-62q-59 0 -83.5 14t-32.5 54l-72 306q-8 46 -8 69z" />
<glyph unicode="x" horiz-adv-x="593" d="M58 443v102h111q23 0 37.5 -12t29.5 -40l58 -102h4l58 102q15 28 29.5 40t37.5 12h111v-102q0 -41 -26 -69l-87 -97l96 -107q26 -28 26 -68v-102h-111q-23 0 -35.5 11t-32.5 41l-66 102h-4l-66 -102q-20 -30 -32.5 -41t-35.5 -11h-110v102q0 41 25 68l96 107l-87 97 q-26 28 -26 69z" />
<glyph unicode="y" horiz-adv-x="582" d="M40 443v102h110q38 0 51.5 -10.5t17.5 -41.5l49 -339h47l49 339q4 31 17 41.5t50 10.5h111v-102q0 -25 -9 -77l-60 -366q-18 -111 -64.5 -157.5t-146.5 -46.5h-179v102q0 31 10 40.5t41 9.5h123q21 0 29.5 7.5t11.5 25.5l2 17l-39 -4q-7 -1 -19 -1q-116 0 -142 126 l-52 255q-8 61 -8 69z" />
<glyph unicode="z" horiz-adv-x="471" d="M431 408l-186 -255h135q31 0 41 -10t10 -41v-102h-340q-31 0 -41 10t-10 41v85l186 255h-135q-31 0 -41 10t-10 41v102h340q31 0 41 -10t10 -41v-85z" />
<glyph unicode="{" horiz-adv-x="502" d="M336 154v-120q0 -52 17 -69t68 -17q31 0 41 -9.5t10 -40.5v-102h-68q-134 0 -190.5 55t-56.5 183v86q0 38 -15.5 53t-52.5 15h-9q-30 0 -40 10t-10 41v102h59q37 0 52.5 15.5t15.5 53.5v66q0 129 56.5 183.5t190.5 54.5h68v-102q0 -31 -10 -40.5t-41 -9.5q-51 0 -68 -17 t-17 -69v-83q0 -109 -68 -120q68 -12 68 -119z" />
<glyph unicode="|" horiz-adv-x="239" d="M209 697v-901h-129q-30 0 -40 10t-10 40v902h127q31 0 41.5 -10t10.5 -41z" />
<glyph unicode="}" horiz-adv-x="502" d="M166 34v120q0 107 68 119q-68 11 -68 120v83q0 52 -17 69t-68 17q-31 0 -41 9.5t-10 40.5v102h68q134 0 190.5 -54.5t56.5 -183.5v-66q0 -38 15.5 -53.5t52.5 -15.5h59v-102q0 -31 -10 -41t-40 -10h-9q-37 0 -52.5 -15t-15.5 -53v-86q0 -128 -56.5 -183t-190.5 -55h-68 v102q0 31 10 40.5t41 9.5q51 0 68 17t17 69z" />
<glyph unicode="~" horiz-adv-x="553" d="M370 238q-35 0 -62 10.5t-40 23.5t-26.5 23.5t-24.5 10.5q-17 0 -17 -17q0 -51 -68 -51h-102v51q0 93 36.5 140t117.5 47q43 0 73.5 -17t48.5 -34t30 -17q17 0 17 17q0 31 10.5 41t40.5 10h119v-51q0 -93 -36 -140t-117 -47z" />
<glyph unicode="&#xa2;" horiz-adv-x="531" d="M338 255h102q30 0 40.5 -10t10.5 -41v-102h-102v-51q0 -31 -10.5 -41t-40.5 -10h-111v109q-109 16 -148 69t-39 179t37 177.5t142 69.5v59q0 31 10 41t41 10h110v-102h111v-102q0 -31 -10 -41t-41 -10h-102q-82 0 -100.5 -16t-18.5 -86q0 -71 18 -86.5t101 -15.5z" />
<glyph unicode="&#xa3;" horiz-adv-x="588" d="M324 281l-5 -60q-1 -12 -8 -59h247v-110q0 -31 -10.5 -41.5t-41.5 -10.5h-476v110q0 31 10.5 41.5t41.5 10.5q28 0 42 11.5t16 47.5l5 60h-80v93q0 31 9.5 41t40.5 10h41l10 126q7 78 49 120.5t138 42.5h170v-110q0 -31 -9.5 -41t-40.5 -10h-129l-9 -128h155v-94 q0 -30 -10.5 -40t-41.5 -10h-114z" />
<glyph unicode="&#xa5;" horiz-adv-x="693" d="M436 152v-102q0 -30 -10.5 -40t-41.5 -10h-127v152h-119v86q0 30 10 40.5t41 10.5h374v-85q0 -31 -10 -41.5t-40 -10.5h-77zM134 460l-80 111q-14 21 -14 41v102h102q34 0 54 -26l150 -230l151 230q18 26 54 26h102v-102q0 -20 -14 -41l-79 -111h55v-86 q0 -30 -10.5 -40.5t-41.5 -10.5h-476v85q0 30 9 40t38 12z" />
<glyph unicode="&#xa8;" horiz-adv-x="434" d="M30 766h110q31 0 41.5 -10.5t10.5 -41.5v-102h-110q-32 0 -42 10.5t-10 41.5v102zM294 766h110v-102q0 -31 -10 -41.5t-41 -10.5h-111v102q0 31 10.5 41.5t41.5 10.5z" />
<glyph unicode="&#xa9;" horiz-adv-x="964" d="M482 -170q-224 0 -333 115.5t-109 326.5t109 326.5t333 115.5t333 -115.5t109 -326.5t-109 -326.5t-333 -115.5zM618 153h-51q-83 0 -101 18t-18 101t18 101t101 18h51q31 0 41 10t10 41v102h-102q-176 0 -237 -58t-61 -214t61 -214t237 -58h102v102q0 31 -10 41t-41 10z " />
<glyph unicode="&#xab;" horiz-adv-x="732" d="M406 409l127 150q15 20 29.5 28t37.5 8h102v-93q0 -30 -42 -77l-85 -91v-3v-2l85 -91q42 -46 42 -76v-94h-102q-39 0 -67 35l-127 150q-35 42 -35 78t35 78zM66 409l126 150q18 21 31.5 28.5t36.5 7.5h102v-93q0 -31 -43 -77l-84 -91v-3v-2l84 -91q43 -43 43 -76v-94 h-102q-22 0 -36 7.5t-32 27.5l-126 150q-36 44 -36 78q0 16 5.5 31t11.5 23t19 24z" />
<glyph unicode="&#xad;" horiz-adv-x="366" d="M336 204h-254q-31 0 -41.5 10t-10.5 40v104h256q30 0 40 -10.5t10 -41.5v-102z" />
<glyph unicode="&#xae;" horiz-adv-x="964" d="M482 -170q-224 0 -333 115.5t-109 326.5t109 326.5t333 115.5t333 -115.5t109 -326.5t-109 -326.5t-333 -115.5zM542 348q0 -27 -7.5 -34.5t-33.5 -7.5h-61v85h61q26 0 33.5 -7.5t7.5 -35.5zM533 544h-222q-31 0 -40.5 -10t-9.5 -41v-493h127q31 0 41.5 10t10.5 40v120 h24l69 -120q30 -50 85 -50h94v85q0 41 -26 67l-46 48q80 50 80 166q0 99 -49 138.5t-138 39.5z" />
<glyph unicode="&#xb4;" horiz-adv-x="368" d="M98 727l58 105q14 24 47 24h102v-85q0 -28 -29 -59l-71 -77q-15 -17 -53 -17h-68v60q0 25 14 49z" />
<glyph unicode="&#xb8;" horiz-adv-x="349" d="M141 0v59q84 0 131 -36t47 -100q0 -127 -161 -127h-128v102q0 30 10.5 40t40.5 10h51q15 0 20.5 5.5t5.5 21.5q0 25 -17 25z" />
<glyph unicode="&#xbb;" horiz-adv-x="732" d="M199 559l127 -150q35 -42 35 -78t-35 -78l-127 -150q-28 -35 -67 -35h-102v94q0 30 42 76l85 91v2v3l-85 91q-42 47 -42 77v93h102q23 0 37.5 -8t29.5 -28zM540 559l126 -150q13 -16 19 -24t11.5 -23t5.5 -31q0 -34 -36 -78l-126 -150q-18 -20 -32 -27.5t-36 -7.5h-102 v94q0 33 43 76l84 91v2v3l-84 91q-43 46 -43 77v93h102q23 0 36.5 -7.5t31.5 -28.5z" />
<glyph unicode="&#x2c6;" horiz-adv-x="454" d="M301 859l95 -103q18 -19 18 -53v-85h-94q-16 0 -23.5 5t-18.5 24l-51 94l-51 -94q-11 -19 -18.5 -24t-24.5 -5h-93v85q0 34 18 53l95 103q11 14 48 14h51q35 0 49 -14z" />
<glyph unicode="&#x2dc;" horiz-adv-x="451" d="M251 612h-221v102q0 31 10.5 41.5t41.5 10.5h160q18 0 18 16q0 31 10 41t41 10h110v-51q0 -82 -39.5 -126t-130.5 -44z" />
<glyph unicode="&#x401;" horiz-adv-x="568" d="M112 714h416v-110q0 -31 -10 -41t-40 -10h-239v-102h272v-120q0 -30 -10.5 -40t-40.5 -10h-221v-119h289v-110q0 -32 -10 -42t-40 -10h-418v664q0 30 10.5 40t41.5 10zM107 934h110q31 0 41.5 -10.5t10.5 -41.5v-102h-110q-32 0 -42 10.5t-10 41.5v102zM371 934h110v-102 q0 -31 -10 -41.5t-41 -10.5h-111v102q0 31 10.5 41.5t41.5 10.5z" />
<glyph unicode="&#x402;" horiz-adv-x="750" d="M387 553v-177l15 31q20 40 44.5 50.5t93.5 10.5q30 0 48.5 -1.5t40.5 -7t34.5 -17t24.5 -31t17 -50t5 -72.5v-51q0 -126 -51.5 -182t-160.5 -56h-68v102q0 31 10 41t41 10q33 0 42 13.5t9 71.5v9q0 45 -12 56.5t-56 11.5q-45 0 -61 -16t-16 -61v-187q0 -31 -10 -41 t-41 -10h-128v553h-178v110q0 31 10 41t41 10h493v-110q0 -31 -10 -41t-41 -10h-136z" />
<glyph unicode="&#x403;" horiz-adv-x="551" d="M60 0v664q0 30 10.5 40t41.5 10h399v-110q0 -31 -10.5 -41t-40.5 -10h-221v-503q0 -30 -10 -40t-41 -10h-128zM199 883l58 105q14 24 47 24h102v-85q0 -28 -29 -59l-71 -77q-15 -17 -53 -17h-68v60q0 25 14 49z" />
<glyph unicode="&#x404;" horiz-adv-x="592" d="M353 280h-152q1 -35 7 -55.5t16.5 -34.5t36 -19.5t53.5 -7.5t82 -2h85q31 0 41 -10t10 -41v-110h-136q-69 0 -118 4.5t-92.5 17t-70.5 34.5t-47.5 57t-29 84.5t-8.5 116.5v85q0 101 19.5 163t67 95.5t111 45t168.5 11.5h136v-110q0 -31 -10 -41t-41 -10h-85 q-119 0 -154 -17t-41 -86h203v-119q0 -30 -10 -40.5t-41 -10.5z" />
<glyph unicode="&#x405;" horiz-adv-x="590" d="M100 161h179q65 0 83.5 10.5t18.5 49.5v38l-215 48q-126 27 -126 186q0 135 53 178t203 43h229v-110q0 -31 -10 -41.5t-41 -10.5h-178q-53 0 -69.5 -7.5t-16.5 -34.5v-47l238 -54q55 -12 78.5 -59t23.5 -129q0 -69 -14.5 -112.5t-49.5 -67.5t-82.5 -32.5t-124.5 -8.5 h-231v110q0 31 10.5 41t41.5 10z" />
<glyph unicode="&#x406;" horiz-adv-x="299" d="M239 714v-662q0 -32 -10.5 -42t-41.5 -10h-127v664q0 30 10 40t40 10h129z" />
<glyph unicode="&#x407;" horiz-adv-x="299" d="M239 714v-662q0 -32 -10.5 -42t-41.5 -10h-127v664q0 30 10 40t40 10h129zM-37 934h110q31 0 41.5 -10.5t10.5 -41.5v-102h-110q-32 0 -42 10.5t-10 41.5v102zM227 934h110v-102q0 -31 -10 -41.5t-41 -10.5h-111v102q0 31 10.5 41.5t41.5 10.5z" />
<glyph unicode="&#x408;" horiz-adv-x="547" d="M507 714v-493q0 -229 -238 -229q-112 0 -170.5 50.5t-58.5 169.5v51h119q31 0 40.5 -10t9.5 -41q0 -38 11 -49t49 -11q39 0 49.5 10.5t10.5 49.5v450q0 32 10 42t41 10h127z" />
<glyph unicode="&#x409;" horiz-adv-x="1040" d="M752 0h-220q-31 0 -41.5 10t-10.5 42v501h-136l-25 -332q-9 -120 -69.5 -170.5t-169.5 -50.5h-50v110q0 31 10 41.5t40 10.5h56l38 502q3 29 14.5 39.5t37.5 10.5h382q31 0 41 -10t10 -40v-213h93q69 0 112 -8.5t75.5 -33t46.5 -68t14 -112.5q0 -133 -57 -181t-191 -48z M659 289v-127h93q43 0 56 14t13 53t-12 49.5t-57 10.5h-93z" />
<glyph unicode="&#x40a;" horiz-adv-x="993" d="M707 0h-222q-31 0 -40.5 10t-9.5 42v229h-196v-281h-127q-31 0 -41.5 10t-10.5 42v662h128q30 0 40.5 -10t10.5 -40v-213h196v263h127q31 0 41.5 -10t10.5 -40v-213h93q67 0 110 -9t75.5 -33t46.5 -67.5t14 -112.5q0 -132 -57 -180.5t-189 -48.5zM707 289h-93v-127h93 q43 0 55 13.5t12 53.5q0 39 -11 49.5t-56 10.5z" />
<glyph unicode="&#x40b;" horiz-adv-x="761" d="M209 0v553h-179v110q0 31 10 41t41 10h493v-110q0 -31 -10 -41t-41 -10h-136v-177l15 31q20 40 44.5 50.5t93.5 10.5q36 0 57 -2t46 -11.5t37.5 -28.5t21.5 -53t9 -84v-289h-128q-31 0 -41 10t-10 41v196q0 45 -12 56.5t-56 11.5q-45 0 -61 -16t-16 -61v-187 q0 -31 -10 -41t-41 -10h-127z" />
<glyph unicode="&#x40c;" horiz-adv-x="639" d="M60 0v664q0 30 10 40t40 10h129v-271h5l168 221q39 50 85 50h93v-102q0 -39 -25 -67l-171 -193l180 -182q25 -27 25 -68v-102h-94q-41 0 -85 52l-176 204h-5v-204q0 -32 -10.5 -42t-41.5 -10h-127zM240 883l58 105q14 24 47 24h102v-85q0 -28 -29 -59l-71 -77 q-15 -17 -53 -17h-68v60q0 25 14 49z" />
<glyph unicode="&#x40e;" horiz-adv-x="632" d="M40 629v85h102q35 0 47 -10t21 -40l90 -324h56l76 324q6 30 18.5 40t48.5 10h93v-85q0 -50 -8 -76l-101 -349q-16 -58 -31 -92t-38.5 -61.5t-57.5 -39t-84 -11.5h-155v110q0 31 10 41.5t41 10.5h146l11 40q-18 -5 -49 -5q-62 0 -87.5 23t-54.5 103l-85 239q-9 20 -9 67z M326 748q-98 0 -138.5 41t-40.5 121v50h110q31 0 41.5 -10t10.5 -40q0 -18 17 -18t17 18q0 30 10 40t41 10h111v-50q0 -80 -40.5 -121t-138.5 -41z" />
<glyph unicode="&#x40f;" horiz-adv-x="672" d="M60 52v662h127q31 0 41.5 -10t10.5 -40v-502h195v502q0 30 10 40t41 10h127v-662q0 -32 -10 -42t-40 -10h-146v-102h-127q-31 0 -40.5 10t-9.5 40v52h-129q-30 0 -40 10t-10 42z" />
<glyph unicode="&#x410;" horiz-adv-x="709" d="M40 0v102q0 33 8 59l154 493q9 34 30.5 47t61.5 13h120q40 0 61 -13t32 -47l153 -493q9 -24 9 -59v-102h-102q-35 0 -48 10t-21 40l-22 86h-243l-24 -86q-6 -29 -19 -39.5t-48 -10.5h-102zM275 289h159l-77 281h-5z" />
<glyph unicode="&#x411;" horiz-adv-x="627" d="M341 0h-281v664q0 30 10 40t42 10h416v-110q0 -31 -10.5 -41t-41.5 -10h-237v-93h102q128 0 187 -49.5t59 -181.5q0 -131 -58.5 -180t-187.5 -49zM239 298v-136h102q45 0 56.5 11t11.5 56t-11.5 57t-56.5 12h-102z" />
<glyph unicode="&#x412;" horiz-adv-x="652" d="M110 714h256q123 0 176 -41t53 -155q0 -105 -80 -147q97 -48 97 -167t-60.5 -161.5t-185.5 -42.5h-306v664q0 30 10 40t40 10zM366 289h-127v-128h127q41 0 54.5 12t13.5 53q0 40 -13.5 51.5t-54.5 11.5zM358 552h-119v-119h119q34 0 46 11.5t12 48.5t-12 48t-46 11z" />
<glyph unicode="&#x413;" horiz-adv-x="551" d="M60 0v664q0 30 10.5 40t41.5 10h399v-110q0 -31 -10.5 -41t-40.5 -10h-221v-503q0 -30 -10 -40t-41 -10h-128z" />
<glyph unicode="&#x414;" horiz-adv-x="791" d="M344 553l-25 -332q-3 -30 -9 -59h186l-8 59l-25 332h-119zM710 0h-680v110q0 31 10 41.5t40 10.5h56l38 502q3 29 14.5 39.5t37.5 10.5h356q25 0 37 -10.5t15 -39.5l38 -502h89v-110q0 -31 -10 -41.5t-41 -10.5z" />
<glyph unicode="&#x415;" horiz-adv-x="568" d="M112 714h416v-110q0 -31 -10 -41t-40 -10h-239v-102h272v-120q0 -30 -10.5 -40t-40.5 -10h-221v-119h289v-110q0 -32 -10 -42t-40 -10h-418v664q0 30 10.5 40t41.5 10z" />
<glyph unicode="&#x416;" horiz-adv-x="980" d="M401 0v254h-6l-176 -204q-44 -50 -85 -50h-94v102q0 42 26 68l179 182l-170 192q-27 27 -27 68v102h94q47 0 85 -50l168 -222h6v222q0 30 10 40t41 10h127v-272h6l168 222q38 50 85 50h94v-102q0 -41 -27 -68l-170 -192l179 -182q26 -26 26 -68v-102h-94q-41 0 -85 50 l-176 204h-6v-204q0 -30 -10 -40t-41 -10h-127z" />
<glyph unicode="&#x417;" horiz-adv-x="565" d="M525 571l-177 -214l177 -213v-93q0 -31 -10 -41t-41 -10h-434v111q0 30 10 40.5t41 10.5h212l-116 140q-44 56 0 111l116 140h-212q-31 0 -41 10t-10 41v110h434q31 0 41 -10t10 -41v-92z" />
<glyph unicode="&#x418;" horiz-adv-x="733" d="M239 664v-350l254 374q18 26 52 26h128v-714h-128q-31 0 -41 10t-10 40v350l-254 -374q-18 -26 -52 -26h-128v714h128q31 0 41 -10t10 -40z" />
<glyph unicode="&#x419;" horiz-adv-x="733" d="M239 664v-350l254 374q18 26 52 26h128v-714h-128q-31 0 -41 10t-10 40v350l-254 -374q-18 -26 -52 -26h-128v714h128q31 0 41 -10t10 -40zM366 748q-98 0 -138.5 41t-40.5 121v50h110q31 0 41.5 -10t10.5 -40q0 -18 17 -18t17 18q0 30 10 40t41 10h111v-50 q0 -80 -40.5 -121t-138.5 -41z" />
<glyph unicode="&#x41a;" horiz-adv-x="639" d="M60 0v664q0 30 10 40t40 10h129v-271h5l168 221q39 50 85 50h93v-102q0 -39 -25 -67l-171 -193l180 -182q25 -27 25 -68v-102h-94q-41 0 -85 52l-176 204h-5v-204q0 -32 -10.5 -42t-41.5 -10h-127z" />
<glyph unicode="&#x41b;" horiz-adv-x="719" d="M344 553l-25 -332q-9 -120 -69.5 -170.5t-169.5 -50.5h-50v110q0 31 10 41.5t40 10.5h56l38 502q3 29 14.5 39.5t37.5 10.5h382q31 0 41 -10t10 -40v-664h-127q-31 0 -41.5 10t-10.5 42v501h-136z" />
<glyph unicode="&#x41c;" horiz-adv-x="902" d="M451 264l213 450h127q31 0 41 -10t10 -40v-664h-127q-31 0 -41 10t-10 40v298l-143 -290q-20 -42 -70 -42q-49 0 -69 42l-143 290v-298q0 -30 -10.5 -40t-41.5 -10h-127v665q0 30 10 39.5t40 9.5h129z" />
<glyph unicode="&#x41d;" horiz-adv-x="673" d="M613 664v-664h-127q-31 0 -41.5 10t-10.5 42v229h-195v-281h-127q-31 0 -41.5 10t-10.5 42v662h128q31 0 41 -10t10 -40v-213h195v263h128q30 0 40.5 -10t10.5 -40z" />
<glyph unicode="&#x41e;" horiz-adv-x="658" d="M329 723q77 0 127.5 -13t89 -47.5t55.5 -99t17 -164.5v-85q0 -100 -17 -164t-55.5 -98.5t-89 -47.5t-127.5 -13t-127.5 13t-89 47.5t-55.5 98.5t-17 164v85q0 100 17 164.5t55.5 99t89 47.5t127.5 13zM440 314v85q0 60 -3.5 91t-17.5 48t-32 20t-58 3t-57.5 -3t-31.5 -20 t-17.5 -48t-3.5 -91v-85q0 -48 3 -76t8.5 -46.5t20 -26t30.5 -10t48 -2.5t48 2.5t31 10t20.5 26t8.5 46.5t3 76z" />
<glyph unicode="&#x41f;" horiz-adv-x="673" d="M60 0v664q0 30 10.5 40t41.5 10h450q32 0 41.5 -10t9.5 -40v-664h-127q-31 0 -41.5 10t-10.5 40v503h-195v-503q0 -30 -10 -40t-41 -10h-128z" />
<glyph unicode="&#x420;" horiz-adv-x="644" d="M111 714h230q146 0 204.5 -58t58.5 -197q0 -137 -61 -196t-202 -59h-102v-153q0 -31 -10.5 -41t-40.5 -10h-128v663q0 31 10 41t41 10zM349 553h-110v-196h110q53 0 69 17t16 85q0 62 -16 78t-69 16z" />
<glyph unicode="&#x421;" horiz-adv-x="593" d="M219 399v-85q0 -55 4.5 -82t26 -45t55 -22t101.5 -4h86q31 0 41 -10t10 -41v-110h-137q-69 0 -118 4.5t-92.5 17t-70.5 34.5t-47.5 57t-29 84.5t-8.5 116.5v85q0 101 19.5 163t67 95.5t111 45t168.5 11.5h137v-110q0 -31 -10 -41t-41 -10h-86q-68 0 -101.5 -4t-55 -22.5 t-26 -45.5t-4.5 -82z" />
<glyph unicode="&#x422;" horiz-adv-x="605" d="M209 0v553h-179v111q0 30 10.5 40t41.5 10h493v-110q0 -31 -10.5 -41t-41.5 -10h-135v-501q0 -32 -10 -42t-42 -10h-127z" />
<glyph unicode="&#x423;" horiz-adv-x="632" d="M40 629v85h102q35 0 47 -10t21 -40l90 -324h56l76 324q6 30 18.5 40t48.5 10h93v-85q0 -50 -8 -76l-101 -349q-16 -58 -31 -92t-38.5 -61.5t-57.5 -39t-84 -11.5h-155v110q0 31 10 41.5t41 10.5h146l11 40q-18 -5 -49 -5q-62 0 -87.5 23t-54.5 103l-85 239q-9 20 -9 67z " />
<glyph unicode="&#x424;" horiz-adv-x="802" d="M311 714h179q146 0 209 -58.5t63 -195.5t-64.5 -196.5t-207.5 -59.5v-152q0 -32 -10 -42t-41 -10h-128v204q-142 0 -206.5 59.5t-64.5 196.5t62 195.5t209 58.5zM294 358h17v204h-17q-53 0 -69 -17.5t-16 -84.5q0 -68 15.5 -85t69.5 -17zM507 562h-17v-204h17 q54 0 69.5 17t15.5 85q0 67 -16 84.5t-69 17.5z" />
<glyph unicode="&#x425;" horiz-adv-x="692" d="M53 143l162 227l-144 201q-14 21 -14 41v102h102q35 0 53 -25l134 -207l134 207q18 25 53 25h102v-102q0 -20 -14 -41l-144 -201l162 -227q13 -22 13 -41v-102h-102q-35 0 -53 26l-151 230l-151 -230q-18 -26 -53 -26h-102v102q0 19 13 41z" />
<glyph unicode="&#x426;" horiz-adv-x="719" d="M60 50v664h127q31 0 41.5 -10t10.5 -40v-502h195v552h128q30 0 40 -10t10 -40v-502h26q31 0 41 -10.5t10 -41.5v-212h-127q-31 0 -41.5 10t-10.5 40v52h-400q-30 0 -40 10t-10 40z" />
<glyph unicode="&#x427;" horiz-adv-x="620" d="M381 714h127q31 0 41.5 -10t10.5 -40v-664h-129q-30 0 -40 10t-10 42v169h-77q-144 0 -204 52t-60 187v254h129q30 0 40 -10t10 -40v-204q0 -47 14.5 -62t70.5 -15h77v331z" />
<glyph unicode="&#x428;" horiz-adv-x="979" d="M868 0h-758q-30 0 -40 10t-10 42v662h127q31 0 41.5 -10t10.5 -40v-502h161v552h128q31 0 40.5 -10t9.5 -40v-502h162v502q0 30 10 40t41 10h128v-662q0 -32 -10.5 -42t-40.5 -10z" />
<glyph unicode="&#x429;" horiz-adv-x="1025" d="M918 162h26q31 0 41 -10.5t10 -41.5v-212h-127q-31 0 -41.5 10t-10.5 40v52h-706q-30 0 -40 10t-10 42v662h127q31 0 41.5 -10t10.5 -40v-502h161v552h127q32 0 41.5 -10t9.5 -40v-502h162v502q0 30 10 40t41 10h127v-552z" />
<glyph unicode="&#x42a;" horiz-adv-x="690" d="M404 0h-238q-31 0 -41 10t-10 42v510h-33q-31 0 -41.5 10t-10.5 40v102h212q31 0 41.5 -10t10.5 -40v-213h110q136 0 191 -44.5t55 -177.5t-56 -181t-190 -48zM294 162h110q43 0 56 14t13 53t-12 49.5t-57 10.5h-110v-127z" />
<glyph unicode="&#x42b;" horiz-adv-x="873" d="M813 714v-662q0 -32 -10.5 -42t-40.5 -10h-128v664q0 30 10 40t41 10h128zM349 0h-239q-31 0 -40.5 10t-9.5 42v662h127q31 0 41 -10t10 -40v-213h111q67 0 110 -9t75.5 -33t46.5 -67.5t14 -112.5q0 -133 -56 -181t-190 -48zM238 162h111q43 0 55 13.5t12 53.5 q0 39 -11 49.5t-56 10.5h-111v-127z" />
<glyph unicode="&#x42c;" horiz-adv-x="635" d="M349 0h-239q-31 0 -40.5 10t-9.5 42v662h127q31 0 41 -10t10 -40v-213h111q67 0 110 -9t75.5 -33t46.5 -67.5t14 -112.5q0 -133 -56 -181t-190 -48zM238 162h111q43 0 55 13.5t12 53.5q0 39 -11 49.5t-56 10.5h-111v-127z" />
<glyph unicode="&#x42d;" horiz-adv-x="592" d="M381 280h-152q-31 0 -41 10.5t-10 40.5v119h203q-6 69 -41 86t-154 17h-85q-31 0 -41 10t-10 41v110h136q105 0 168.5 -11.5t111 -45t67 -95.5t19.5 -163v-85q0 -67 -8.5 -116.5t-29 -84.5t-47.5 -57t-70.5 -34.5t-92.5 -17t-118 -4.5h-136v110q0 31 10 41t41 10h85 q54 0 82 2t53.5 7.5t36 19.5t16.5 34.5t7 55.5z" />
<glyph unicode="&#x42e;" horiz-adv-x="942" d="M238 442h86q4 86 22.5 141.5t56 86t86.5 42t124 11.5t125 -13t89 -47.5t57 -99t18 -164.5v-85q0 -99 -18 -163.5t-57 -99t-89 -47.5t-125 -13t-124.5 11.5t-87.5 43t-56 88.5t-21 146h-86v-280h-127q-31 0 -41 10t-10 41v663h127q31 0 41 -10t10 -41v-221zM723 314v85 q0 60 -3.5 91t-17.5 48t-31.5 20t-57.5 3t-58 -3t-32 -20t-17.5 -48t-3.5 -91v-85q0 -48 3 -76t8.5 -46.5t20.5 -26t31 -10t48 -2.5t48 2.5t30.5 10t20 26t8.5 46.5t3 76z" />
<glyph unicode="&#x42f;" horiz-adv-x="654" d="M297 714h246q31 0 41 -10t10 -41v-663h-127q-31 0 -41 10t-10 41v179h-97l-89 -201q-13 -29 -52 -29h-111v76q0 27 21 63l63 118q-53 26 -77 76t-24 135q0 135 52 190.5t195 55.5zM416 553h-111q-53 0 -69 -14.5t-16 -70.5q0 -62 16 -78t69 -16h111v179z" />
<glyph unicode="&#x430;" horiz-adv-x="566" d="M202 179q0 -20 12 -27t47 -7q52 0 68 12t16 56h-101q-25 0 -33.5 -7.5t-8.5 -26.5zM516 306v-306h-110q-24 0 -33 10t-18 41l-9 32l-15 -30q-19 -41 -43 -51.5t-95 -10.5q-88 0 -120.5 41.5t-32.5 146.5v25q0 72 42.5 108.5t110.5 36.5q38 0 54 -2l94 -7q-2 33 -17 42 t-63 9h-136q-31 0 -41 10t-10 41v102h187q149 0 202 -53t53 -185z" />
<glyph unicode="&#x431;" horiz-adv-x="600" d="M50 255v215q0 159 58.5 218.5t221.5 59.5h162v-102q0 -31 -10 -41t-41 -10h-102q-74 0 -92.5 -20t-18.5 -97l15 31q13 29 38.5 36.5t82.5 7.5q118 0 157 -61t39 -220q0 -158 -54.5 -219.5t-209.5 -61.5q-137 0 -191.5 69t-54.5 195zM381 272q0 61 -6.5 87t-20.5 33.5 t-49 7.5q-53 0 -65 -19t-12 -92v-34q0 -72 12 -91t65 -19q50 0 63 20t13 107z" />
<glyph unicode="&#x432;" d="M339 187q0 19 -7 26.5t-26 7.5h-77v-69h77q18 0 25.5 8t7.5 27zM102 544h220q93 0 132 -35.5t39 -108.5q0 -108 -77 -123q48 -9 71 -45t23 -88q0 -66 -43.5 -105t-127.5 -39h-289v493q0 31 10.5 41t41.5 10zM229 391v-60h60q19 0 26 6t7 24t-7 24t-26 6h-60z" />
<glyph unicode="&#x433;" horiz-adv-x="455" d="M100 544h315v-102q0 -31 -10 -41t-41 -10h-136v-341q0 -30 -10 -40t-41 -10h-127v493q0 31 10 41t40 10z" />
<glyph unicode="&#x434;" horiz-adv-x="643" d="M101 154l39 339q4 30 15.5 41t35.5 11h277q25 0 36.5 -11t15.5 -41l39 -339h54v-102q0 -32 -10.5 -42t-40.5 -10h-532v102q0 31 10 41.5t40 10.5h21zM278 154h104q-3 6 -3 16l-26 221h-46l-26 -221q0 -10 -3 -16z" />
<glyph unicode="&#x435;" horiz-adv-x="540" d="M210 323h119v17q0 38 -11.5 49t-48.5 11t-47 -13t-12 -64zM448 204h-233q2 -33 19.5 -42.5t61.5 -9.5h135q31 0 41.5 -10t10.5 -40v-102h-205q-136 0 -187 63t-51 209q0 154 51.5 217t177.5 63q113 0 172 -46t59 -166v-86q0 -30 -10.5 -40t-41.5 -10z" />
<glyph unicode="&#x436;" horiz-adv-x="863" d="M342 0v204h-5l-109 -154q-36 -50 -84 -50h-94v102q0 41 25 68l103 113l-94 91q-26 24 -26 68v102h94q46 0 85 -51l100 -135h5v135q0 31 10 41t41 10h127v-186h5l101 135q38 51 85 51h94v-102q0 -42 -27 -68l-94 -91l103 -113q26 -28 26 -68v-102h-93q-48 0 -86 50 l-109 154h-5v-154q0 -30 -9.5 -40t-40.5 -10h-128z" />
<glyph unicode="&#x437;" horiz-adv-x="500" d="M253 153l-71 85q-28 34 0 68l71 85h-152q-31 0 -41 10t-10 41v102h349q31 0 41 -10t10 -41v-93l-105 -128l105 -128v-93q0 -31 -10 -41t-41 -10h-349v102q0 31 10 41t41 10h152z" />
<glyph unicode="&#x438;" horiz-adv-x="611" d="M382 238l-170 -238h-110q-31 0 -41.5 10t-10.5 40v494h128q31 0 41 -10t10 -41v-187l170 238h111q30 0 40.5 -10t10.5 -41v-493h-128q-31 0 -41 10t-10 40v188z" />
<glyph unicode="&#x439;" horiz-adv-x="611" d="M382 238l-170 -238h-110q-31 0 -41.5 10t-10.5 40v494h128q31 0 41 -10t10 -41v-187l170 238h111q30 0 40.5 -10t10.5 -41v-493h-128q-31 0 -41 10t-10 40v188zM306 604q-98 0 -138.5 41t-40.5 121v50h110q31 0 41.5 -10t10.5 -40q0 -18 17 -18t17 18q0 30 10 40t41 10 h111v-50q0 -80 -40.5 -121t-138.5 -41z" />
<glyph unicode="&#x43a;" horiz-adv-x="570" d="M50 0v493q0 31 10 41t40 10h128v-186h6l99 135q37 51 85 51h94v-102q0 -41 -25 -68l-95 -91l103 -113q25 -27 25 -68v-102h-93q-47 0 -85 50l-108 154h-6v-154q0 -30 -10 -40t-41 -10h-127z" />
<glyph unicode="&#x43b;" horiz-adv-x="607" d="M108 154l41 339q4 30 14.5 41t35.5 11h306q31 0 41.5 -10.5t10.5 -41.5v-493h-127q-31 0 -41.5 10t-10.5 42v339h-62l-27 -221q-11 -84 -53 -127t-139 -43h-67v102q0 31 10 41.5t40 10.5h28z" />
<glyph unicode="&#x43c;" horiz-adv-x="678" d="M450 281l-72 -85q-16 -20 -39 -20t-39 20l-71 85v-231q0 -30 -10.5 -40t-41.5 -10h-127v493q0 31 10 41t40 10h111l128 -155l127 155h111q31 0 41 -10t10 -41v-493h-128q-31 0 -40.5 10t-9.5 40v231z" />
<glyph unicode="&#x43d;" horiz-adv-x="567" d="M228 204v-204h-128q-30 0 -40 10t-10 40v494h127q31 0 41 -10t10 -41v-135h111v186h127q31 0 41 -10t10 -41v-493h-127q-31 0 -41 10t-10 40v154h-111z" />
<glyph unicode="&#x43e;" horiz-adv-x="573" d="M286 400q-46 0 -57 -20t-11 -108q0 -63 5 -88t17.5 -32.5t45.5 -7.5t45.5 7.5t17.5 32.5t5 88q0 88 -11 108t-57 20zM286 -8q-139 0 -192.5 62t-53.5 218q0 155 53.5 217.5t192.5 62.5t193 -62.5t54 -217.5t-54 -217.5t-193 -62.5z" />
<glyph unicode="&#x43f;" horiz-adv-x="558" d="M330 391h-102v-341q0 -30 -10 -40t-41 -10h-127v493q0 31 10 41t40 10h358q31 0 40.5 -10t9.5 -41v-493h-127q-31 0 -41 10t-10 40v341z" />
<glyph unicode="&#x440;" horiz-adv-x="600" d="M382 272q0 61 -6.5 87t-21 33.5t-49.5 7.5q-53 0 -64.5 -18.5t-11.5 -92.5v-34q0 -73 11.5 -91.5t64.5 -18.5q35 0 49.5 7.5t21 33t6.5 86.5zM229 461l15 31q20 38 44 49.5t77 11.5q116 0 155.5 -61t39.5 -220t-39.5 -220t-155.5 -61q-54 0 -78 11.5t-43 50.5l-15 30 v-287h-128q-31 0 -41 10t-10 41v697h119q24 0 33 -10t18 -41z" />
<glyph unicode="&#x441;" horiz-adv-x="479" d="M337 153h51q31 0 41 -10t10 -41v-102h-102q-175 0 -236 58t-61 214t61 214t236 58h102v-102q0 -31 -10 -41t-41 -10h-51q-83 0 -101 -18.5t-18 -100.5q0 -83 18 -101t101 -18z" />
<glyph unicode="&#x442;" horiz-adv-x="506" d="M92 544h374v-102q0 -31 -10.5 -41t-41.5 -10h-76v-341q0 -30 -10 -40t-41 -10h-128v391h-119v102q0 31 10.5 41t41.5 10z" />
<glyph unicode="&#x443;" horiz-adv-x="582" d="M40 443v102h110q38 0 51.5 -10.5t17.5 -41.5l49 -339h47l49 339q4 31 17 41.5t50 10.5h111v-102q0 -25 -9 -77l-60 -366q-18 -111 -64.5 -157.5t-146.5 -46.5h-179v102q0 31 10 40.5t41 9.5h123q21 0 29.5 7.5t11.5 25.5l2 17l-39 -4q-7 -1 -19 -1q-116 0 -142 126 l-52 255q-8 61 -8 69z" />
<glyph unicode="&#x444;" horiz-adv-x="922" d="M219 272q0 -87 13 -107t63 -20q53 0 65 19t12 91v34q0 73 -12 92t-65 19q-35 0 -49 -7.5t-20.5 -33.5t-6.5 -87zM703 272q0 61 -6.5 87t-20.5 33.5t-49 7.5q-52 0 -64.5 -18.5t-12.5 -87.5v-43q0 -70 12 -88t65 -18q50 0 63 20t13 107zM372 83l-15 -30q-19 -40 -42.5 -51 t-78.5 -11q-118 0 -157 61t-39 220t39 220t157 61q53 0 77 -11.5t44 -49.5l15 -31v287h127q31 0 41 -10t10 -41v-236l15 31q20 38 44 49.5t77 11.5q118 0 157 -61t39 -220t-39 -220t-157 -61q-54 0 -78 11.5t-43 50.5l-15 30v-287h-127q-31 0 -41 10t-10 41v236z" />
<glyph unicode="&#x445;" horiz-adv-x="593" d="M58 443v102h111q23 0 37.5 -12t29.5 -40l58 -102h4l58 102q15 28 29.5 40t37.5 12h111v-102q0 -41 -26 -69l-87 -97l96 -107q26 -28 26 -68v-102h-111q-23 0 -35.5 11t-32.5 41l-66 102h-4l-66 -102q-20 -30 -32.5 -41t-35.5 -11h-110v102q0 41 25 68l96 107l-87 97 q-26 28 -26 69z" />
<glyph unicode="&#x446;" horiz-adv-x="608" d="M578 102v-204h-128q-31 0 -41 10t-10 40v52h-297q-31 0 -41.5 10t-10.5 40v494h128q31 0 41 -10t10 -41v-341h102v392h128q31 0 41 -10t10 -41v-341h16q31 0 41.5 -10t10.5 -40z" />
<glyph unicode="&#x447;" d="M500 493v-493h-127q-31 0 -41 10t-10 40v94h-68q-100 0 -152 52.5t-52 143.5v204h127q31 0 41.5 -10t10.5 -41v-127q0 -47 9.5 -57.5t57.5 -10.5h26v246h128q30 0 40 -10t10 -41z" />
<glyph unicode="&#x448;" horiz-adv-x="822" d="M229 154h93v390h128q30 0 40 -10t10 -41v-339h94v339q0 31 10 41t41 10h127v-494q0 -30 -9.5 -40t-40.5 -10h-622q-30 0 -40 10t-10 40v494h127q31 0 41.5 -10t10.5 -41v-339z" />
<glyph unicode="&#x449;" horiz-adv-x="879" d="M229 154h93v390h128q30 0 40.5 -10t10.5 -41v-339h94v339q0 31 9.5 41t40.5 10h127v-390h27q30 0 40 -10.5t10 -41.5v-204h-127q-31 0 -41.5 10t-10.5 40v52h-568q-31 0 -41.5 10t-10.5 40v494h127q31 0 41.5 -10t10.5 -41v-339z" />
<glyph unicode="&#x44a;" horiz-adv-x="615" d="M404 187q0 19 -7 26.5t-26 7.5h-77v-67h77q19 0 26 7t7 26zM115 52v339h-33q-31 0 -41.5 10t-10.5 42v102h212q31 0 41.5 -10.5t10.5 -41.5v-119h94q98 0 142.5 -47.5t44.5 -139.5q0 -106 -50 -146.5t-137 -40.5h-221q-32 0 -42 10t-10 42z" />
<glyph unicode="&#x44b;" horiz-adv-x="772" d="M722 493v-493h-127q-31 0 -41.5 10t-10.5 40v494h129q30 0 40 -10t10 -41zM339 187q0 19 -7 26.5t-26 7.5h-77v-67h77q19 0 26 7t7 26zM322 0h-220q-32 0 -42 10t-10 42v493h127q31 0 41.5 -10.5t10.5 -41.5v-119h93q99 0 143.5 -47.5t44.5 -139.5q0 -106 -50.5 -146.5 t-137.5 -40.5z" />
<glyph unicode="&#x44c;" d="M339 187q0 19 -7 26.5t-26 7.5h-77v-67h77q19 0 26 7t7 26zM322 0h-220q-32 0 -42 10t-10 42v493h127q31 0 41.5 -10.5t10.5 -41.5v-119h93q99 0 143.5 -47.5t44.5 -139.5q0 -106 -50.5 -146.5t-137.5 -40.5z" />
<glyph unicode="&#x44d;" horiz-adv-x="505" d="M296 204h-154q-31 0 -41.5 10t-10.5 40v94h203q-2 26 -20.5 34.5t-64.5 8.5h-118q-30 0 -40 10t-10 41v102h170q136 0 195.5 -69t59.5 -203t-59.5 -203t-195.5 -69h-170v102q0 31 10 40.5t40 9.5h118q49 0 68 10.5t20 41.5z" />
<glyph unicode="&#x44e;" horiz-adv-x="812" d="M526 400q-46 0 -57 -20t-11 -108q0 -87 11.5 -107.5t56.5 -20.5t56.5 21t11.5 107q0 38 -1.5 59.5t-5 36.5t-12.5 21.5t-19 8.5t-30 2zM229 204v-204h-129q-30 0 -40 10t-10 42v493h127q31 0 41.5 -10.5t10.5 -41.5v-135h55q12 105 68 150t174 45q139 0 192.5 -63 t53.5 -218t-53.5 -217.5t-192.5 -62.5q-124 0 -179 48t-65 164h-53z" />
<glyph unicode="&#x44f;" d="M219 349q0 -17 1.5 -25.5t9 -12.5t14 -4.5t26.5 -0.5h51v85h-51q-35 0 -43 -5.5t-8 -36.5zM227 545h221q31 0 41.5 -10.5t10.5 -41.5v-493h-128q-30 0 -40.5 10t-10.5 42v118h-24l-70 -118q-29 -52 -85 -52h-94v85q0 42 27 69l43 43q-78 45 -78 169q0 55 14.5 92t42 55 t58 25t72.5 7z" />
<glyph unicode="&#x451;" horiz-adv-x="540" d="M210 323h119v17q0 38 -11.5 49t-48.5 11t-47 -13t-12 -64zM448 204h-233q2 -33 19.5 -42.5t61.5 -9.5h135q31 0 41.5 -10t10.5 -40v-102h-205q-136 0 -187 63t-51 209q0 154 51.5 217t177.5 63q113 0 172 -46t59 -166v-86q0 -30 -10.5 -40t-41.5 -10zM83 766h110 q31 0 41.5 -10.5t10.5 -41.5v-102h-110q-32 0 -42 10.5t-10 41.5v102zM347 766h110v-102q0 -31 -10 -41.5t-41 -10.5h-111v102q0 31 10.5 41.5t41.5 10.5z" />
<glyph unicode="&#x452;" horiz-adv-x="667" d="M115 51v544h-34q-31 0 -41 10t-10 41v102h213q30 0 40.5 -10t10.5 -41v-236l14 31q20 40 44.5 50.5t94.5 10.5q30 0 48.5 -1.5t40.5 -7t34.5 -17t24.5 -31t17 -50t5 -72.5v-340q0 -128 -56.5 -183t-190.5 -55h-68v102q0 31 10 41t41 10q58 0 71.5 13t13.5 72v298 q0 45 -11.5 56.5t-56.5 11.5q-44 0 -60 -16t-16 -61v-323h-128q-31 0 -41 10t-10 41z" />
<glyph unicode="&#x453;" horiz-adv-x="455" d="M100 544h315v-102q0 -31 -10 -41t-41 -10h-136v-341q0 -30 -10 -40t-41 -10h-127v493q0 31 10 41t40 10zM146 727l58 105q14 24 47 24h102v-85q0 -28 -29 -59l-71 -77q-15 -17 -53 -17h-68v60q0 25 14 49z" />
<glyph unicode="&#x454;" horiz-adv-x="505" d="M363 204h-154q1 -31 20 -41.5t68 -10.5h118q30 0 40 -9.5t10 -40.5v-102h-170q-136 0 -195.5 69t-59.5 203t59.5 203t195.5 69h170v-102q0 -31 -10 -41t-40 -10h-118q-46 0 -64.5 -8.5t-20.5 -34.5h203v-94q0 -30 -10.5 -40t-41.5 -10z" />
<glyph unicode="&#x455;" horiz-adv-x="488" d="M40 374q0 84 48 127t139 43h204v-102q0 -31 -10.5 -41t-40.5 -10h-179q-17 0 -17 -17v-10l162 -38q55 -12 78.5 -45.5t23.5 -111.5q0 -83 -48 -126t-139 -43h-221v102q0 31 10 40.5t40 9.5h196q17 0 17 17v12l-161 37q-56 13 -79 44.5t-23 111.5z" />
<glyph unicode="&#x456;" horiz-adv-x="279" d="M229 493v-493h-129q-30 0 -40 10t-10 42v493h127q31 0 41.5 -10.5t10.5 -41.5z" />
<glyph unicode="&#x457;" horiz-adv-x="279" d="M229 493v-493h-129q-30 0 -40 10t-10 42v493h127q31 0 41.5 -10.5t10.5 -41.5zM-47 766h110q31 0 41.5 -10.5t10.5 -41.5v-102h-110q-32 0 -42 10.5t-10 41.5v102zM217 766h110v-102q0 -31 -10 -41.5t-41 -10.5h-111v102q0 31 10.5 41.5t41.5 10.5z" />
<glyph unicode="&#x458;" horiz-adv-x="279" d="M50 34v459q0 31 10 41t41 10h128v-510q0 -129 -56.5 -183.5t-190.5 -54.5h-68v102q0 31 10 40.5t41 9.5q58 0 71.5 13t13.5 73z" />
<glyph unicode="&#x459;" horiz-adv-x="878" d="M109 154l40 339q4 30 15 41t36 11h306q31 0 41.5 -10.5t10.5 -41.5v-119h94q98 0 142 -47t44 -140q0 -106 -49.5 -146.5t-136.5 -40.5h-222q-31 0 -41 10t-10 42v339h-63l-26 -221q-11 -84 -53 -127t-139 -43h-68v102q0 31 10.5 41.5t41.5 10.5h27zM558 154h76q20 0 27 7 t7 26t-7 26.5t-27 7.5h-76v-67z" />
<glyph unicode="&#x45a;" horiz-adv-x="839" d="M628 187q0 19 -7 26.5t-26 7.5h-77v-67h77q19 0 26 7t7 26zM612 0h-222q-31 0 -41 10t-10 42v152h-110v-204h-129q-30 0 -40 10t-10 42v493h127q31 0 41.5 -10.5t10.5 -41.5v-135h110v187h127q31 0 41.5 -10.5t10.5 -41.5v-119h94q98 0 142.5 -47.5t44.5 -139.5 q0 -106 -50 -146.5t-137 -40.5z" />
<glyph unicode="&#x45b;" horiz-adv-x="667" d="M30 748h213q31 0 41 -10t10 -41v-236l15 31q20 40 44 50.5t94 10.5q30 0 48.5 -1.5t40.5 -7t34.5 -17t24.5 -31t17 -50t5 -72.5v-374h-128q-30 0 -40.5 10t-10.5 41v281q0 45 -11.5 56.5t-56.5 11.5q-44 0 -60 -16t-16 -61v-323h-128q-31 0 -41 10t-10 41v544h-34 q-31 0 -41 10t-10 41v102z" />
<glyph unicode="&#x45c;" horiz-adv-x="570" d="M50 0v493q0 31 10 41t40 10h128v-186h6l99 135q37 51 85 51h94v-102q0 -41 -25 -68l-95 -91l103 -113q25 -27 25 -68v-102h-93q-47 0 -85 50l-108 154h-6v-154q0 -30 -10 -40t-41 -10h-127zM208 727l58 105q14 24 47 24h102v-85q0 -28 -29 -59l-71 -77q-15 -17 -53 -17 h-68v60q0 25 14 49z" />
<glyph unicode="&#x45e;" horiz-adv-x="582" d="M40 443v102h110q38 0 51.5 -10.5t17.5 -41.5l49 -339h47l49 339q4 31 17 41.5t50 10.5h111v-102q0 -25 -9 -77l-60 -366q-18 -111 -64.5 -157.5t-146.5 -46.5h-179v102q0 31 10 40.5t41 9.5h123q21 0 29.5 7.5t11.5 25.5l2 17l-39 -4q-7 -1 -19 -1q-116 0 -142 126 l-52 255q-8 61 -8 69zM297 604q-98 0 -138.5 41t-40.5 121v50h110q31 0 41.5 -10t10.5 -40q0 -18 17 -18t17 18q0 30 10 40t41 10h111v-50q0 -80 -40.5 -121t-138.5 -41z" />
<glyph unicode="&#x45f;" horiz-adv-x="560" d="M229 154h102v339q0 31 10 41.5t40 10.5h129v-493q0 -32 -10.5 -42t-41.5 -10h-85v-102h-127q-31 0 -41 10t-10 40v52h-93q-31 0 -41.5 10t-10.5 42v493h127q31 0 41.5 -10.5t10.5 -41.5v-339z" />
<glyph unicode="&#x490;" horiz-adv-x="551" d="M511 766v-162q0 -31 -10.5 -41t-40.5 -10h-221v-503q0 -30 -10 -40t-41 -10h-128v664q0 30 10.5 40t41.5 10h238v103h110q31 0 41 -10.5t10 -40.5z" />
<glyph unicode="&#x491;" horiz-adv-x="455" d="M415 592v-150q0 -31 -10 -41t-41 -10h-136v-341q0 -30 -10 -40t-41 -10h-127v493q0 31 10 41t40 10h154v99h110q31 0 41 -10.5t10 -40.5z" />
<glyph unicode="&#x2000;" horiz-adv-x="506" />
<glyph unicode="&#x2001;" horiz-adv-x="1012" />
<glyph unicode="&#x2002;" horiz-adv-x="506" />
<glyph unicode="&#x2003;" horiz-adv-x="1012" />
<glyph unicode="&#x2004;" horiz-adv-x="337" />
<glyph unicode="&#x2005;" horiz-adv-x="253" />
<glyph unicode="&#x2006;" horiz-adv-x="168" />
<glyph unicode="&#x2007;" horiz-adv-x="168" />
<glyph unicode="&#x2008;" horiz-adv-x="126" />
<glyph unicode="&#x2009;" horiz-adv-x="202" />
<glyph unicode="&#x200a;" horiz-adv-x="56" />
<glyph unicode="&#x2010;" horiz-adv-x="366" d="M336 204h-254q-31 0 -41.5 10t-10.5 40v104h256q30 0 40 -10.5t10 -41.5v-102z" />
<glyph unicode="&#x2011;" horiz-adv-x="366" d="M336 204h-254q-31 0 -41.5 10t-10.5 40v104h256q30 0 40 -10.5t10 -41.5v-102z" />
<glyph unicode="&#x2012;" horiz-adv-x="366" d="M336 204h-254q-31 0 -41.5 10t-10.5 40v104h256q30 0 40 -10.5t10 -41.5v-102z" />
<glyph unicode="&#x2013;" horiz-adv-x="434" d="M404 204h-322q-32 0 -42 10t-10 40v104h323q31 0 41 -10.5t10 -41.5v-102z" />
<glyph unicode="&#x2014;" horiz-adv-x="808" d="M778 204h-698q-30 0 -40 10t-10 40v104h697q31 0 41 -10.5t10 -41.5v-102z" />
<glyph unicode="&#x2018;" horiz-adv-x="238" d="M157 425h-127v119q0 45 13 69l29 51q16 28 29.5 39t38.5 11h68v-238q0 -30 -10 -40.5t-41 -10.5z" />
<glyph unicode="&#x2019;" horiz-adv-x="238" d="M81 714h127v-119q0 -45 -13 -69l-29 -51q-16 -28 -29.5 -39t-38.5 -11h-68v238q0 30 10 40.5t41 10.5z" />
<glyph unicode="&#x201a;" horiz-adv-x="239" d="M80 179h129v-145q0 -46 -15 -69l-28 -50q-17 -30 -30 -41t-38 -11h-68v264q0 31 10 41.5t40 10.5z" />
<glyph unicode="&#x201c;" horiz-adv-x="460" d="M378 425h-127v119q0 47 14 69l28 51q16 28 30 39t38 11h69v-238q0 -30 -10.5 -40.5t-41.5 -10.5zM157 425h-127v119q0 45 13 69l29 51q16 28 29.5 39t38.5 11h68v-238q0 -30 -10 -40.5t-41 -10.5z" />
<glyph unicode="&#x201d;" horiz-adv-x="460" d="M82 714h127v-119q0 -47 -14 -69l-28 -51q-16 -28 -30 -39t-38 -11h-69v238q0 30 10.5 40.5t41.5 10.5zM303 714h127v-119q0 -45 -13 -69l-29 -51q-16 -28 -29.5 -39t-38.5 -11h-68v238q0 30 10 40.5t41 10.5z" />
<glyph unicode="&#x201e;" horiz-adv-x="460" d="M80 179h129v-145q0 -46 -15 -69l-28 -50q-17 -30 -30 -41t-38 -11h-68v264q0 31 10 41.5t40 10.5zM302 179h128v-145q0 -46 -15 -69l-27 -50q-17 -30 -30.5 -41t-38.5 -11h-68v264q0 31 10.5 41.5t40.5 10.5z" />
<glyph unicode="&#x2022;" horiz-adv-x="453" d="M226 85q-96 0 -141 52t-45 135t45 135.5t141 52.5q97 0 142 -52t45 -136q0 -83 -45 -135t-142 -52z" />
<glyph unicode="&#x2026;" horiz-adv-x="754" d="M596 179h128v-129q0 -30 -10 -40t-41 -10h-127v127q0 31 10 41.5t40 10.5zM282 179h127q31 0 41 -10.5t10 -41.5v-127h-128q-30 0 -40 10t-10 40v129zM80 179h128v-129q0 -30 -10 -40t-41 -10h-127v127q0 31 10 41.5t40 10.5z" />
<glyph unicode="&#x202f;" horiz-adv-x="202" />
<glyph unicode="&#x2039;" horiz-adv-x="391" d="M65 409l127 150q15 20 29.5 28t37.5 8h102v-93q0 -30 -42 -77l-85 -91v-3v-2l85 -91q42 -46 42 -76v-94h-102q-39 0 -67 35l-127 150q-35 42 -35 78q0 16 5.5 31t11 23t18.5 24z" />
<glyph unicode="&#x203a;" horiz-adv-x="391" d="M199 559l127 -150q13 -16 18.5 -24t11 -23t5.5 -31q0 -36 -35 -78l-127 -150q-28 -35 -67 -35h-102v94q0 30 42 76l85 91v2v3l-85 91q-42 47 -42 77v93h102q23 0 37.5 -8t29.5 -28z" />
<glyph unicode="&#x205f;" horiz-adv-x="253" />
<glyph unicode="&#x20ac;" horiz-adv-x="620" d="M445 196h-143q25 -34 93 -34h144q31 0 41 -10.5t10 -41.5v-110h-170q-120 0 -192 43t-103 153h-95v85q0 31 10 40.5t40 9.5h417v-85q0 -30 -10.5 -40t-41.5 -10zM96 510h23q27 113 102 158.5t199 45.5h170v-110q0 -31 -10 -41t-41 -10h-144q-77 0 -100 -43h235v-85 q0 -31 -10 -41t-41 -10h-433v86q0 30 9.5 40t40.5 10z" />
<glyph unicode="&#x2122;" horiz-adv-x="936" d="M82 714h314v-94q0 -30 -10.5 -40t-41.5 -10h-50v-212q0 -32 -10.5 -42t-41.5 -10h-110v264h-102v94q0 30 10.5 40t41.5 10zM744 460l-37 -60q-14 -21 -39 -21t-39 21l-37 60v-102q0 -32 -10.5 -42t-41.5 -10h-110v358q0 30 10 40t41 10h94l93 -138l93 138h93 q31 0 41.5 -10t10.5 -40v-358h-110q-31 0 -41.5 10.5t-10.5 41.5v102z" />
<glyph unicode="&#x25fc;" horiz-adv-x="545" d="M0 545h545v-545h-545v545z" />
</font>
</defs>
</svg>
